<svg width="352" height="12" viewBox="0 0 352 12" fill="none" xmlns="http://www.w3.org/2000/svg">
<path d="M0.666667 6C0.666667 8.94552 3.05448 11.3333 6 11.3333C8.94552 11.3333 11.3333 8.94552 11.3333 6C11.3333 3.05448 8.94552 0.666667 6 0.666667C3.05448 0.666667 0.666667 3.05448 0.666667 6ZM340.667 6C340.667 8.94552 343.054 11.3333 346 11.3333C348.946 11.3333 351.333 8.94552 351.333 6C351.333 3.05448 348.946 0.666667 346 0.666667C343.054 0.666667 340.667 3.05448 340.667 6ZM6 7H346V5H6V7Z" fill="#E2DEDB"/>
</svg>
