<svg xmlns="http://www.w3.org/2000/svg" width="390" height="30" fill="none"><path fill="#E2DEDB" d="M0 29c79.5-40 301-6 390 0H0Z" opacity=".75"/><path fill="#E2DEDB" d="M0 29c31-34 346-40 390 0H0Z" opacity=".75"/><path fill="#0C351F" d="M199.744 2.6a.4.4 0 0 1 .693 0l2.063 3.573a.4.4 0 0 1-.346.6h-4.126a.4.4 0 0 1-.346-.6l2.062-3.573Z"/><path fill="#0C351F" d="M199.835 4.418a.4.4 0 0 1 .693 0l2.457 4.255a.4.4 0 0 1-.347.6h-4.913a.4.4 0 0 1-.346-.6l2.456-4.255Z"/><path fill="#0C351F" d="M199.744 6.418a.4.4 0 0 1 .693 0l2.85 4.936a.4.4 0 0 1-.346.6h-5.7a.4.4 0 0 1-.347-.6l2.85-4.936Z"/><path fill="#E2DEDB" d="M0 29c151.455-18.044 346-40 390 0H0Z"/><path fill="#0C351F" d="M253.314 4.5a1 1 0 0 1 1.732 0l4.451 7.71a1 1 0 0 1-.866 1.5h-8.902a1 1 0 0 1-.866-1.5l4.451-7.71Z"/><path fill="#0C351F" d="M253.518 8.58a1 1 0 0 1 1.732 0l5.334 9.24a1 1 0 0 1-.866 1.5h-10.669a1 1 0 0 1-.866-1.5l5.335-9.24Z"/><path fill="#0C351F" d="M253.314 13.068a1 1 0 0 1 1.732 0l6.218 10.77a1 1 0 0 1-.866 1.5h-12.436a1 1 0 0 1-.866-1.5l6.218-10.77ZM124.833.6a.4.4 0 0 1 .693 0l2.063 3.573a.4.4 0 0 1-.347.6h-4.125a.4.4 0 0 1-.346-.6L124.833.6Z"/><path fill="#0C351F" d="M124.924 2.418a.4.4 0 0 1 .693 0l2.456 4.255a.4.4 0 0 1-.346.6h-4.913a.4.4 0 0 1-.346-.6l2.456-4.255Z"/><path fill="#0C351F" d="M124.833 4.418a.4.4 0 0 1 .693 0l2.85 4.937a.4.4 0 0 1-.346.6h-5.7a.4.4 0 0 1-.347-.6l2.85-4.937Z"/></svg>