<svg width="375" height="20" viewBox="0 0 375 20" fill="none" xmlns="http://www.w3.org/2000/svg">
<path opacity="0.8" d="M0 12C0 12 105.287 -2.48839 178.5 0.50001C252 3.50011 374 10.5 374 10.5L375 19.6069H0V12Z" fill="#E2DEDB"/>
<path opacity="0.5" d="M23.5 19.7858C23.5 19.7858 61.0269 1.50005 134.5 1.50001C164.927 1.5 234.5 12.5 248.5 19.7857C291.5 1.50001 375 1.5 375 1.5V19.7857H0L23.5 19.7858Z" fill="#E2DEDB"/>
<path opacity="0.5" d="M375 6C375 6 241.5 -0.499993 201 20.0065C150.5 -7.49999 0 20.0064 0 20.0064L375 20.0064V6Z" fill="#E2DEDB"/>
</svg>
