<svg width="390" height="30" viewBox="0 0 390 30" fill="none" xmlns="http://www.w3.org/2000/svg">
<path opacity="0.75" d="M0 28.9996C79.5 -11.0002 301 23 390 28.9997L0 28.9996Z" fill="#E2DEDB"/>
<path opacity="0.75" d="M0 28.9995C31 -5 346 -11.0002 390 28.9996L0 28.9995Z" fill="#E2DEDB"/>
<path d="M199.744 2.6C199.898 2.33333 200.283 2.33333 200.437 2.6L202.5 6.17273C202.654 6.43939 202.462 6.77273 202.154 6.77273L198.028 6.77273C197.72 6.77273 197.528 6.43939 197.682 6.17273L199.744 2.6Z" fill="#0C351F"/>
<path d="M199.835 4.41818C199.989 4.15151 200.374 4.15151 200.528 4.41818L202.985 8.67272C203.139 8.93939 202.946 9.27272 202.638 9.27272H197.725C197.417 9.27272 197.225 8.93939 197.379 8.67272L199.835 4.41818Z" fill="#0C351F"/>
<path d="M199.744 6.41818C199.898 6.15151 200.283 6.15151 200.437 6.41818L203.287 11.3545C203.441 11.6212 203.249 11.9545 202.941 11.9545H197.241C196.933 11.9545 196.741 11.6212 196.894 11.3545L199.744 6.41818Z" fill="#0C351F"/>
<path d="M0 28.9997C151.455 10.9558 346 -11 390 28.9998L0 28.9997Z" fill="#E2DEDB"/>
<path d="M253.314 4.5C253.699 3.83333 254.661 3.83333 255.046 4.5L259.497 12.2098C259.882 12.8765 259.401 13.7098 258.631 13.7098L249.729 13.7098C248.959 13.7098 248.478 12.8765 248.863 12.2098L253.314 4.5Z" fill="#0C351F"/>
<path d="M253.518 8.57989C253.903 7.91323 254.865 7.91323 255.25 8.5799L260.584 17.8197C260.969 18.4863 260.488 19.3197 259.718 19.3197H249.049C248.279 19.3197 247.798 18.4863 248.183 17.8197L253.518 8.57989Z" fill="#0C351F"/>
<path d="M253.314 13.0678C253.699 12.4011 254.661 12.4011 255.046 13.0678L261.264 23.8375C261.649 24.5042 261.168 25.3375 260.398 25.3375H247.962C247.192 25.3375 246.711 24.5042 247.096 23.8375L253.314 13.0678Z" fill="#0C351F"/>
<path d="M124.833 0.600001C124.987 0.333334 125.372 0.333333 125.526 0.6L127.589 4.17273C127.743 4.43939 127.55 4.77273 127.242 4.77273L123.117 4.77273C122.809 4.77273 122.617 4.43939 122.771 4.17273L124.833 0.600001Z" fill="#0C351F"/>
<path d="M124.924 2.41818C125.078 2.15151 125.463 2.15151 125.617 2.41818L128.073 6.67272C128.227 6.93939 128.035 7.27272 127.727 7.27272L122.814 7.27272C122.506 7.27272 122.314 6.93939 122.468 6.67272L124.924 2.41818Z" fill="#0C351F"/>
<path d="M124.833 4.41818C124.987 4.15151 125.372 4.15151 125.526 4.41818L128.376 9.35454C128.53 9.62121 128.338 9.95454 128.03 9.95454H122.33C122.022 9.95454 121.829 9.62121 121.983 9.35454L124.833 4.41818Z" fill="#0C351F"/>
</svg>
