<svg width="100" height="100" viewBox="0 0 100 100" fill="none" xmlns="http://www.w3.org/2000/svg">
<g clip-path="url(#clip0_562_46)">
<path d="M45.04 84.44C40.624 84.44 36.848 83.832 33.712 82.616C30.64 81.4 28.304 79.832 26.704 77.912C25.168 75.992 24.4 74.008 24.4 71.96C24.4 69.784 25.04 68.056 26.32 66.776C27.664 65.432 29.424 64.76 31.6 64.76C32.112 64.76 32.624 64.824 33.136 64.952C33.648 65.016 34 65.048 34.192 65.048L35.44 65.24V80.6C35.504 80.6 36.176 80.856 37.456 81.368C39.12 81.816 41.008 82.04 43.12 82.04C47.6 82.04 51.024 80.696 53.392 78.008C55.824 75.256 57.04 71.16 57.04 65.72C57.04 60.152 55.856 55.96 53.488 53.144C51.184 50.328 48.048 48.92 44.08 48.92H39.28V46.52H44.08C46.96 46.52 49.36 45.24 51.28 42.68C53.2 40.12 54.16 36.44 54.16 31.64C54.16 26.84 53.168 23.16 51.184 20.6C49.2 18.04 46.672 16.76 43.6 16.76C41.936 16.76 40.336 17.016 38.8 17.528C38.608 17.592 37.968 17.816 36.88 18.2V33.56L35.632 33.848C34.608 33.976 33.744 34.04 33.04 34.04C30.864 34.04 29.104 33.4 27.76 32.12C26.48 30.776 25.84 29.016 25.84 26.84C25.84 24.856 26.608 22.904 28.144 20.984C29.68 19.064 31.92 17.496 34.864 16.28C37.872 15 41.424 14.36 45.52 14.36C50.896 14.36 55.44 15.16 59.152 16.76C62.928 18.296 65.744 20.376 67.6 23C69.52 25.624 70.48 28.504 70.48 31.64C70.48 35.288 69.552 38.2 67.696 40.376C65.84 42.488 63.408 44.184 60.4 45.464C57.456 46.616 54.096 47.288 50.32 47.48V47.96C54.544 48.152 58.384 48.888 61.84 50.168C69.52 53.24 73.36 58.424 73.36 65.72C73.36 71.352 71.024 75.896 66.352 79.352C61.744 82.744 54.64 84.44 45.04 84.44Z" fill="#165B33"/>
</g>
<defs>
<clipPath id="clip0_562_46">
<rect width="100" height="100" fill="white"/>
</clipPath>
</defs>
</svg>
