<svg width="335" height="335" viewBox="0 0 335 335" fill="none" xmlns="http://www.w3.org/2000/svg">
<g clip-path="url(#clip0_522_7)">
<path d="M167.5 0L172.753 117.525L202.325 3.66028L183.028 119.709L235.628 14.4811L192.625 123.982L265.954 31.9897L201.124 130.157L291.977 55.4206L208.153 137.964L312.559 83.75L213.406 147.061L326.802 115.74L216.652 157.052L334.082 149.991L217.75 167.5L334.082 185.009L216.652 177.948L326.802 219.26L213.406 187.939L312.559 251.25L208.153 197.036L291.977 279.579L201.124 204.843L265.954 303.01L192.625 211.018L235.628 320.519L183.028 215.291L202.325 331.34L172.753 217.475L167.5 335L162.247 217.475L132.675 331.34L151.972 215.291L99.3716 320.519L142.375 211.018L69.046 303.01L133.876 204.843L43.0232 279.579L126.847 197.036L22.4408 251.25L121.594 187.939L8.19803 219.26L118.348 177.948L0.917587 185.009L117.25 167.5L0.917587 149.991L118.348 157.052L8.19803 115.74L121.594 147.061L22.4408 83.75L126.847 137.964L43.0232 55.4206L133.876 130.157L69.046 31.9897L142.375 123.982L99.3716 14.4811L151.972 119.709L132.675 3.66028L162.247 117.525L167.5 0Z" fill="#E2DEDB"/>
<g filter="url(#filter0_f_522_7)">
<circle cx="168" cy="168" r="95" fill="#E2DEDB"/>
</g>
</g>
<defs>
<filter id="filter0_f_522_7" x="9" y="9" width="318" height="318" filterUnits="userSpaceOnUse" color-interpolation-filters="sRGB">
<feFlood flood-opacity="0" result="BackgroundImageFix"/>
<feBlend mode="normal" in="SourceGraphic" in2="BackgroundImageFix" result="shape"/>
<feGaussianBlur stdDeviation="32" result="effect1_foregroundBlur_522_7"/>
</filter>
<clipPath id="clip0_522_7">
<rect width="335" height="335" fill="white"/>
</clipPath>
</defs>
</svg>
