<svg width="100" height="100" viewBox="0 0 100 100" fill="none" xmlns="http://www.w3.org/2000/svg">
<g clip-path="url(#clip0_562_44)">
<path d="M24.88 78.68C24.88 74.904 25.616 71.48 27.088 68.408C28.624 65.272 30.48 62.552 32.656 60.248C34.832 57.944 37.68 55.224 41.2 52.088C44.464 49.208 47.024 46.808 48.88 44.888C50.736 42.904 52.304 40.696 53.584 38.264C54.864 35.768 55.504 33.08 55.504 30.2C55.504 25.976 54.48 22.68 52.432 20.312C50.384 17.944 47.728 16.76 44.464 16.76C42.608 16.76 40.72 17.016 38.8 17.528L36.784 18.2V33.56L35.536 33.848C34.512 33.976 33.648 34.04 32.944 34.04C30.768 34.04 29.008 33.4 27.664 32.12C26.384 30.776 25.744 29.016 25.744 26.84C25.744 24.792 26.512 22.808 28.048 20.888C29.648 18.968 31.984 17.4 35.056 16.184C38.192 14.968 41.968 14.36 46.384 14.36C55.024 14.36 61.424 16.088 65.584 19.544C69.744 23 71.824 27.832 71.824 34.04C71.824 37.944 70.8 41.304 68.752 44.12C66.768 46.936 64.304 49.272 61.36 51.128C58.48 52.984 54.608 55.096 49.744 57.464C45.648 59.448 42.32 61.208 39.76 62.744C37.264 64.216 34.928 66.008 32.752 68.12C30.64 70.232 29.136 72.632 28.24 75.32H63.76C64.208 71.864 65.296 68.984 67.024 66.68C67.728 65.592 68.56 64.632 69.52 63.8H72.4V83H24.88V78.68Z" fill="#165B33"/>
</g>
<defs>
<clipPath id="clip0_562_44">
<rect width="100" height="100" fill="white"/>
</clipPath>
</defs>
</svg>
