<svg width="429" height="17" viewBox="0 0 429 17" fill="none" xmlns="http://www.w3.org/2000/svg">
<g clip-path="url(#clip0_517_14)">
<ellipse cx="47.0023" cy="8.06927" rx="3.5" ry="7.5" transform="rotate(12.1692 47.0023 8.06927)" fill="#D53330"/>
<ellipse cx="236.976" cy="8.06181" rx="3.5" ry="7.5" transform="rotate(11.9391 236.976 8.06181)" fill="#D53330"/>
<ellipse cx="97.3971" cy="8.16687" rx="3.5" ry="7.5" transform="rotate(-15.6833 97.3971 8.16687)" fill="#F8B229"/>
<ellipse cx="286.934" cy="8.04969" rx="3.5" ry="7.5" transform="rotate(-11.5734 286.934 8.04969)" fill="#F8B229"/>
<ellipse cx="142.48" cy="7.9038" rx="3.5" ry="7.5" transform="rotate(7.75771 142.48 7.9038)" fill="#FF3399"/>
<ellipse cx="332.089" cy="8.09296" rx="3.5" ry="7.5" transform="rotate(12.9288 332.089 8.09296)" fill="#FF3399"/>
<ellipse cx="191.752" cy="7.99479" rx="3.5" ry="7.5" transform="rotate(-10.025 191.752 7.99479)" fill="#5C3DFF"/>
<ellipse cx="381.229" cy="8.12835" rx="3.5" ry="7.5" transform="rotate(-14.1617 381.229 8.12835)" fill="#5C3DFF"/>
<path d="M48.5 1C66.452 7.96466 76.7281 8.21822 95.5 1" stroke="#131313" stroke-width="2" stroke-linecap="round"/>
<path d="M96 1C113.952 7.96466 124.228 8.21822 143 1" stroke="#131313" stroke-width="2" stroke-linecap="round"/>
<path d="M143.5 1C161.452 7.96466 171.728 8.21822 190.5 1" stroke="#131313" stroke-width="2" stroke-linecap="round"/>
<path d="M191 1C208.952 7.96466 219.228 8.21822 238 1" stroke="#131313" stroke-width="2" stroke-linecap="round"/>
<path d="M238.5 1C256.452 7.96466 266.728 8.21822 285.5 1" stroke="#131313" stroke-width="2" stroke-linecap="round"/>
<path d="M286 1C303.952 7.96466 314.228 8.21822 333 1" stroke="#131313" stroke-width="2" stroke-linecap="round"/>
<path d="M333.5 1C351.452 7.96466 361.728 8.21822 380.5 1" stroke="#131313" stroke-width="2" stroke-linecap="round"/>
<path d="M381 1C398.952 7.96466 409.228 8.21822 428 1" stroke="#131313" stroke-width="2" stroke-linecap="round"/>
<path d="M1 1C18.952 7.96466 29.2281 8.21822 48 1" stroke="#131313" stroke-width="2" stroke-linecap="round"/>
</g>
<defs>
<clipPath id="clip0_517_14">
<rect width="429" height="16.3338" fill="white"/>
</clipPath>
</defs>
</svg>
