<svg width="390" height="844" viewBox="0 0 390 844" fill="none" xmlns="http://www.w3.org/2000/svg">
<g opacity="0.2">
<path d="M159.858 122.703C161.62 123.537 161.979 124.68 161.727 126.378C161.727 126.378 160.835 125.683 159.332 125.148C157.09 124.348 153.505 124.95 154.393 123.587C155.281 122.223 157.752 121.706 159.858 122.703Z" stroke="black" stroke-width="0.4"/>
<g filter="url(#filter0_d_571_2)">
<circle cx="168.944" cy="134.68" r="10" transform="rotate(-41 168.944 134.68)" fill="#D53330"/>
</g>
<rect x="158.708" y="129.002" width="8" height="2" transform="rotate(-41 158.708 129.002)" fill="#F8B229"/>
<path d="M98.9472 753.838C98.3556 751.981 98.9461 750.938 100.36 749.964C100.36 749.964 100.46 751.091 101.093 752.555C102.038 754.741 104.923 756.952 103.32 757.232C101.717 757.513 99.6544 756.058 98.9472 753.838Z" stroke="black" stroke-width="0.4"/>
<g filter="url(#filter1_d_571_2)">
<circle cx="101.51" cy="739.025" r="10" transform="rotate(-174 101.51 739.025)" fill="#D53330"/>
</g>
<rect x="104.338" y="750.383" width="8" height="2" transform="rotate(-174 104.338 750.383)" fill="#F8B229"/>
<path d="M62.8849 410.882C63.3785 412.767 62.7342 413.778 61.2714 414.676C61.2714 414.676 61.2303 413.545 60.6748 412.05C59.8456 409.818 57.0798 407.459 58.6955 407.263C60.3111 407.067 62.2949 408.627 62.8849 410.882Z" stroke="black" stroke-width="0.4"/>
<g filter="url(#filter2_d_571_2)">
<circle cx="59.5506" cy="425.54" r="10" transform="rotate(8.99999 59.5506 425.54)" fill="#D53330"/>
</g>
<rect x="57.3207" y="414.05" width="8" height="2" transform="rotate(8.99999 57.3207 414.05)" fill="#F8B229"/>
<path d="M336.689 546.677C335.279 548.023 334.083 547.949 332.588 547.105C332.588 547.105 333.557 546.521 334.595 545.31C336.145 543.503 336.868 539.94 337.823 541.258C338.777 542.576 338.374 545.068 336.689 546.677Z" stroke="black" stroke-width="0.4"/>
<g filter="url(#filter3_d_571_2)">
<circle cx="322.251" cy="550.867" r="10" transform="rotate(70 322.251 550.867)" fill="#D53330"/>
</g>
<rect x="331.22" y="543.346" width="8" height="2" transform="rotate(70 331.22 543.346)" fill="#F8B229"/>
<path d="M68.758 271.686C68.3749 273.597 67.353 274.223 65.6445 274.389C65.6445 274.389 66.1032 273.355 66.2593 271.767C66.4923 269.398 65.0407 266.065 66.5788 266.597C68.1169 267.129 69.2158 269.401 68.758 271.686Z" stroke="black" stroke-width="0.4"/>
<g filter="url(#filter4_d_571_2)">
<circle cx="59.3352" cy="283.399" r="10" transform="rotate(35 59.3352 283.399)" fill="#FF3399"/>
</g>
<rect x="62.3679" y="272.094" width="8" height="2" transform="rotate(35 62.3679 272.094)" fill="#F8B229"/>
<path d="M346.897 389.021C346.749 390.965 345.811 391.711 344.136 392.084C344.136 392.084 344.465 391.001 344.427 389.407C344.369 387.027 342.522 383.896 344.114 384.236C345.705 384.577 347.073 386.698 346.897 389.021Z" stroke="black" stroke-width="0.4"/>
<g filter="url(#filter5_d_571_2)">
<circle cx="338.972" cy="401.796" r="10" transform="rotate(28 338.972 401.796)" fill="#FF3399"/>
</g>
<rect x="340.604" y="390.206" width="8" height="2" transform="rotate(28 340.604 390.206)" fill="#F8B229"/>
<path d="M344.323 47.5634C345.422 45.9536 346.607 45.777 348.245 46.2918C348.245 46.2918 347.418 47.0646 346.655 48.4646C345.514 50.5547 345.548 54.1898 344.34 53.0991C343.132 52.0084 343.008 49.4876 344.323 47.5634Z" stroke="black" stroke-width="0.4"/>
<g filter="url(#filter6_d_571_2)">
<circle cx="357.573" cy="40.4628" r="10" transform="rotate(-122 357.573 40.4628)" fill="#FF3399"/>
</g>
<rect x="350.364" y="49.6841" width="8" height="2" transform="rotate(-122 350.364 49.6841)" fill="#F8B229"/>
<path d="M250.299 639.185C251.981 640.169 252.24 641.339 251.841 643.009C251.841 643.009 251.012 642.238 249.562 641.574C247.398 640.582 243.774 640.87 244.778 639.589C245.782 638.308 248.288 638.008 250.299 639.185Z" stroke="black" stroke-width="0.4"/>
<g filter="url(#filter7_d_571_2)">
<circle cx="258.307" cy="651.908" r="10" transform="rotate(-36 258.307 651.908)" fill="#FF3399"/>
</g>
<rect x="248.605" y="645.36" width="8" height="2" transform="rotate(-36 248.605 645.36)" fill="#F8B229"/>
<path d="M148.009 593.141C146.326 592.157 146.067 590.987 146.466 589.317C146.466 589.317 147.295 590.088 148.745 590.752C150.909 591.744 154.533 591.457 153.529 592.738C152.526 594.019 150.02 594.318 148.009 593.141Z" stroke="black" stroke-width="0.4"/>
<g filter="url(#filter8_d_571_2)">
<circle cx="140.001" cy="580.418" r="10" transform="rotate(144 140.001 580.418)" fill="#F8B229"/>
</g>
<rect x="149.702" y="586.966" width="8" height="2" transform="rotate(144 149.702 586.966)" fill="#D53330"/>
<path d="M81.5195 36.3828C80.3646 37.9533 79.1739 38.0884 77.5554 37.5168C77.5554 37.5168 78.4082 36.7733 79.2205 35.4008C80.433 33.3518 80.526 29.7177 81.6951 30.8499C82.8642 31.9821 82.9 34.5057 81.5195 36.3828Z" stroke="black" stroke-width="0.4"/>
<g filter="url(#filter9_d_571_2)">
<circle cx="68.0291" cy="43.0168" r="10" transform="rotate(60 68.0291 43.0168)" fill="#F8B229"/>
</g>
<rect x="75.5554" y="34.0527" width="8" height="2" transform="rotate(60 75.5554 34.0527)" fill="#D53330"/>
<path d="M343.823 712.114C344.758 713.825 344.377 714.961 343.175 716.186C343.175 716.186 342.862 715.099 341.961 713.783C340.616 711.818 337.362 710.198 338.882 709.617C340.402 709.036 342.705 710.07 343.823 712.114Z" stroke="black" stroke-width="0.4"/>
<g filter="url(#filter10_d_571_2)">
<circle cx="344.134" cy="727.144" r="10" transform="rotate(-4.99999 344.134 727.144)" fill="#F8B229"/>
</g>
<rect x="339.19" y="716.535" width="8" height="2" transform="rotate(-4.99999 339.19 716.535)" fill="#D53330"/>
<path d="M211.322 314.746C210.508 312.975 210.968 311.868 212.252 310.729C212.252 310.729 212.489 311.836 213.296 313.211C214.5 315.265 217.633 317.108 216.076 317.582C214.519 318.056 212.295 316.864 211.322 314.746Z" stroke="black" stroke-width="0.4"/>
<g filter="url(#filter11_d_571_2)">
<circle cx="212.06" cy="299.731" r="10" transform="rotate(179 212.06 299.731)" fill="#F8B229"/>
</g>
<rect x="216.252" y="310.66" width="8" height="2" transform="rotate(179 216.252 310.66)" fill="#D53330"/>
<path d="M304.087 189.923C305.911 189.235 306.983 189.77 308.029 191.131C308.029 191.131 306.909 191.29 305.48 191.999C303.347 193.057 301.29 196.054 300.926 194.468C300.562 192.882 301.907 190.746 304.087 189.923Z" stroke="black" stroke-width="0.4"/>
<g filter="url(#filter12_d_571_2)">
<circle cx="319.014" cy="191.707" r="10" transform="rotate(-87 319.014 191.707)" fill="#5C3DFF"/>
</g>
<rect x="307.82" y="195.126" width="8" height="2" transform="rotate(-87 307.82 195.126)" fill="#F8B229"/>
<path d="M274.037 797.433C272.537 798.677 271.349 798.52 269.917 797.574C269.917 797.574 270.924 797.059 272.044 795.924C273.716 794.229 274.686 790.725 275.546 792.107C276.407 793.488 275.831 795.945 274.037 797.433Z" stroke="black" stroke-width="0.4"/>
<g filter="url(#filter13_d_571_2)">
<circle cx="259.343" cy="800.606" r="10" transform="rotate(74 259.343 800.606)" fill="#5C3DFF"/>
</g>
<rect x="268.814" y="793.729" width="8" height="2" transform="rotate(74 268.814 793.729)" fill="#F8B229"/>
<path d="M211.289 469.928C211.616 471.85 210.886 472.8 209.351 473.568C209.351 473.568 209.408 472.438 208.985 470.9C208.353 468.604 205.804 466.013 207.43 465.959C209.057 465.904 210.897 467.631 211.289 469.928Z" stroke="black" stroke-width="0.4"/>
<g filter="url(#filter14_d_571_2)">
<circle cx="206.689" cy="484.241" r="10" transform="rotate(14 206.689 484.241)" fill="#5C3DFF"/>
</g>
<rect x="205.469" y="472.6" width="8" height="2" transform="rotate(14 205.469 472.6)" fill="#F8B229"/>
<path d="M46.1106 627.394C47.8822 626.581 48.989 627.04 50.1275 628.324C50.1275 628.324 49.0212 628.561 47.6454 629.368C45.5915 630.572 43.7483 633.705 43.2747 632.148C42.8011 630.591 43.9932 628.367 46.1106 627.394Z" stroke="black" stroke-width="0.4"/>
<g filter="url(#filter15_d_571_2)">
<circle cx="61.1258" cy="628.132" r="10" transform="rotate(-91 61.1258 628.132)" fill="#5C3DFF"/>
</g>
<rect x="50.1973" y="632.324" width="8" height="2" transform="rotate(-91 50.1973 632.324)" fill="#F8B229"/>
</g>
<defs>
<filter id="filter0_d_571_2" x="148.944" y="114.68" width="40.0003" height="40.0004" filterUnits="userSpaceOnUse" color-interpolation-filters="sRGB">
<feFlood flood-opacity="0" result="BackgroundImageFix"/>
<feColorMatrix in="SourceAlpha" type="matrix" values="0 0 0 0 0 0 0 0 0 0 0 0 0 0 0 0 0 0 127 0" result="hardAlpha"/>
<feOffset/>
<feGaussianBlur stdDeviation="5"/>
<feComposite in2="hardAlpha" operator="out"/>
<feColorMatrix type="matrix" values="0 0 0 0 0.835294 0 0 0 0 0.2 0 0 0 0 0.188235 0 0 0 0.4 0"/>
<feBlend mode="normal" in2="BackgroundImageFix" result="effect1_dropShadow_571_2"/>
<feBlend mode="normal" in="SourceGraphic" in2="effect1_dropShadow_571_2" result="shape"/>
</filter>
<filter id="filter1_d_571_2" x="81.5089" y="719.024" width="40.0016" height="40.0015" filterUnits="userSpaceOnUse" color-interpolation-filters="sRGB">
<feFlood flood-opacity="0" result="BackgroundImageFix"/>
<feColorMatrix in="SourceAlpha" type="matrix" values="0 0 0 0 0 0 0 0 0 0 0 0 0 0 0 0 0 0 127 0" result="hardAlpha"/>
<feOffset/>
<feGaussianBlur stdDeviation="5"/>
<feComposite in2="hardAlpha" operator="out"/>
<feColorMatrix type="matrix" values="0 0 0 0 0.835294 0 0 0 0 0.2 0 0 0 0 0.188235 0 0 0 0.4 0"/>
<feBlend mode="normal" in2="BackgroundImageFix" result="effect1_dropShadow_571_2"/>
<feBlend mode="normal" in="SourceGraphic" in2="effect1_dropShadow_571_2" result="shape"/>
</filter>
<filter id="filter2_d_571_2" x="39.5492" y="405.539" width="40.0029" height="40.0029" filterUnits="userSpaceOnUse" color-interpolation-filters="sRGB">
<feFlood flood-opacity="0" result="BackgroundImageFix"/>
<feColorMatrix in="SourceAlpha" type="matrix" values="0 0 0 0 0 0 0 0 0 0 0 0 0 0 0 0 0 0 127 0" result="hardAlpha"/>
<feOffset/>
<feGaussianBlur stdDeviation="5"/>
<feComposite in2="hardAlpha" operator="out"/>
<feColorMatrix type="matrix" values="0 0 0 0 0.835294 0 0 0 0 0.2 0 0 0 0 0.188235 0 0 0 0.4 0"/>
<feBlend mode="normal" in2="BackgroundImageFix" result="effect1_dropShadow_571_2"/>
<feBlend mode="normal" in="SourceGraphic" in2="effect1_dropShadow_571_2" result="shape"/>
</filter>
<filter id="filter3_d_571_2" x="302.249" y="530.865" width="40.0054" height="40.0054" filterUnits="userSpaceOnUse" color-interpolation-filters="sRGB">
<feFlood flood-opacity="0" result="BackgroundImageFix"/>
<feColorMatrix in="SourceAlpha" type="matrix" values="0 0 0 0 0 0 0 0 0 0 0 0 0 0 0 0 0 0 127 0" result="hardAlpha"/>
<feOffset/>
<feGaussianBlur stdDeviation="5"/>
<feComposite in2="hardAlpha" operator="out"/>
<feColorMatrix type="matrix" values="0 0 0 0 0.835294 0 0 0 0 0.2 0 0 0 0 0.188235 0 0 0 0.4 0"/>
<feBlend mode="normal" in2="BackgroundImageFix" result="effect1_dropShadow_571_2"/>
<feBlend mode="normal" in="SourceGraphic" in2="effect1_dropShadow_571_2" result="shape"/>
</filter>
<filter id="filter4_d_571_2" x="39.3344" y="263.399" width="40.0017" height="40.0017" filterUnits="userSpaceOnUse" color-interpolation-filters="sRGB">
<feFlood flood-opacity="0" result="BackgroundImageFix"/>
<feColorMatrix in="SourceAlpha" type="matrix" values="0 0 0 0 0 0 0 0 0 0 0 0 0 0 0 0 0 0 127 0" result="hardAlpha"/>
<feOffset/>
<feGaussianBlur stdDeviation="5"/>
<feComposite in2="hardAlpha" operator="out"/>
<feColorMatrix type="matrix" values="0 0 0 0 1 0 0 0 0 0.2 0 0 0 0 0.6 0 0 0 0.4 0"/>
<feBlend mode="normal" in2="BackgroundImageFix" result="effect1_dropShadow_571_2"/>
<feBlend mode="normal" in="SourceGraphic" in2="effect1_dropShadow_571_2" result="shape"/>
</filter>
<filter id="filter5_d_571_2" x="318.97" y="381.794" width="40.0039" height="40.0039" filterUnits="userSpaceOnUse" color-interpolation-filters="sRGB">
<feFlood flood-opacity="0" result="BackgroundImageFix"/>
<feColorMatrix in="SourceAlpha" type="matrix" values="0 0 0 0 0 0 0 0 0 0 0 0 0 0 0 0 0 0 127 0" result="hardAlpha"/>
<feOffset/>
<feGaussianBlur stdDeviation="5"/>
<feComposite in2="hardAlpha" operator="out"/>
<feColorMatrix type="matrix" values="0 0 0 0 1 0 0 0 0 0.2 0 0 0 0 0.6 0 0 0 0.4 0"/>
<feBlend mode="normal" in2="BackgroundImageFix" result="effect1_dropShadow_571_2"/>
<feBlend mode="normal" in="SourceGraphic" in2="effect1_dropShadow_571_2" result="shape"/>
</filter>
<filter id="filter6_d_571_2" x="337.572" y="20.4614" width="40.0027" height="40.0027" filterUnits="userSpaceOnUse" color-interpolation-filters="sRGB">
<feFlood flood-opacity="0" result="BackgroundImageFix"/>
<feColorMatrix in="SourceAlpha" type="matrix" values="0 0 0 0 0 0 0 0 0 0 0 0 0 0 0 0 0 0 127 0" result="hardAlpha"/>
<feOffset/>
<feGaussianBlur stdDeviation="5"/>
<feComposite in2="hardAlpha" operator="out"/>
<feColorMatrix type="matrix" values="0 0 0 0 1 0 0 0 0 0.2 0 0 0 0 0.6 0 0 0 0.4 0"/>
<feBlend mode="normal" in2="BackgroundImageFix" result="effect1_dropShadow_571_2"/>
<feBlend mode="normal" in="SourceGraphic" in2="effect1_dropShadow_571_2" result="shape"/>
</filter>
<filter id="filter7_d_571_2" x="238.306" y="631.907" width="40.0015" height="40.0015" filterUnits="userSpaceOnUse" color-interpolation-filters="sRGB">
<feFlood flood-opacity="0" result="BackgroundImageFix"/>
<feColorMatrix in="SourceAlpha" type="matrix" values="0 0 0 0 0 0 0 0 0 0 0 0 0 0 0 0 0 0 127 0" result="hardAlpha"/>
<feOffset/>
<feGaussianBlur stdDeviation="5"/>
<feComposite in2="hardAlpha" operator="out"/>
<feColorMatrix type="matrix" values="0 0 0 0 1 0 0 0 0 0.2 0 0 0 0 0.6 0 0 0 0.4 0"/>
<feBlend mode="normal" in2="BackgroundImageFix" result="effect1_dropShadow_571_2"/>
<feBlend mode="normal" in="SourceGraphic" in2="effect1_dropShadow_571_2" result="shape"/>
</filter>
<filter id="filter8_d_571_2" x="120" y="560.417" width="40.0015" height="40.0015" filterUnits="userSpaceOnUse" color-interpolation-filters="sRGB">
<feFlood flood-opacity="0" result="BackgroundImageFix"/>
<feColorMatrix in="SourceAlpha" type="matrix" values="0 0 0 0 0 0 0 0 0 0 0 0 0 0 0 0 0 0 127 0" result="hardAlpha"/>
<feOffset/>
<feGaussianBlur stdDeviation="5"/>
<feComposite in2="hardAlpha" operator="out"/>
<feColorMatrix type="matrix" values="0 0 0 0 0.972549 0 0 0 0 0.698039 0 0 0 0 0.160784 0 0 0 0.4 0"/>
<feBlend mode="normal" in2="BackgroundImageFix" result="effect1_dropShadow_571_2"/>
<feBlend mode="normal" in="SourceGraphic" in2="effect1_dropShadow_571_2" result="shape"/>
</filter>
<filter id="filter9_d_571_2" x="48.0275" y="23.0151" width="40.0034" height="40.0033" filterUnits="userSpaceOnUse" color-interpolation-filters="sRGB">
<feFlood flood-opacity="0" result="BackgroundImageFix"/>
<feColorMatrix in="SourceAlpha" type="matrix" values="0 0 0 0 0 0 0 0 0 0 0 0 0 0 0 0 0 0 127 0" result="hardAlpha"/>
<feOffset/>
<feGaussianBlur stdDeviation="5"/>
<feComposite in2="hardAlpha" operator="out"/>
<feColorMatrix type="matrix" values="0 0 0 0 0.972549 0 0 0 0 0.698039 0 0 0 0 0.160784 0 0 0 0.4 0"/>
<feBlend mode="normal" in2="BackgroundImageFix" result="effect1_dropShadow_571_2"/>
<feBlend mode="normal" in="SourceGraphic" in2="effect1_dropShadow_571_2" result="shape"/>
</filter>
<filter id="filter10_d_571_2" x="324.133" y="707.144" width="40.0012" height="40.0012" filterUnits="userSpaceOnUse" color-interpolation-filters="sRGB">
<feFlood flood-opacity="0" result="BackgroundImageFix"/>
<feColorMatrix in="SourceAlpha" type="matrix" values="0 0 0 0 0 0 0 0 0 0 0 0 0 0 0 0 0 0 127 0" result="hardAlpha"/>
<feOffset/>
<feGaussianBlur stdDeviation="5"/>
<feComposite in2="hardAlpha" operator="out"/>
<feColorMatrix type="matrix" values="0 0 0 0 0.972549 0 0 0 0 0.698039 0 0 0 0 0.160784 0 0 0 0.4 0"/>
<feBlend mode="normal" in2="BackgroundImageFix" result="effect1_dropShadow_571_2"/>
<feBlend mode="normal" in="SourceGraphic" in2="effect1_dropShadow_571_2" result="shape"/>
</filter>
<filter id="filter11_d_571_2" x="192.06" y="279.731" width="40.0001" height="40" filterUnits="userSpaceOnUse" color-interpolation-filters="sRGB">
<feFlood flood-opacity="0" result="BackgroundImageFix"/>
<feColorMatrix in="SourceAlpha" type="matrix" values="0 0 0 0 0 0 0 0 0 0 0 0 0 0 0 0 0 0 127 0" result="hardAlpha"/>
<feOffset/>
<feGaussianBlur stdDeviation="5"/>
<feComposite in2="hardAlpha" operator="out"/>
<feColorMatrix type="matrix" values="0 0 0 0 0.972549 0 0 0 0 0.698039 0 0 0 0 0.160784 0 0 0 0.4 0"/>
<feBlend mode="normal" in2="BackgroundImageFix" result="effect1_dropShadow_571_2"/>
<feBlend mode="normal" in="SourceGraphic" in2="effect1_dropShadow_571_2" result="shape"/>
</filter>
<filter id="filter12_d_571_2" x="299.014" y="171.707" width="40.0005" height="40.0005" filterUnits="userSpaceOnUse" color-interpolation-filters="sRGB">
<feFlood flood-opacity="0" result="BackgroundImageFix"/>
<feColorMatrix in="SourceAlpha" type="matrix" values="0 0 0 0 0 0 0 0 0 0 0 0 0 0 0 0 0 0 127 0" result="hardAlpha"/>
<feOffset/>
<feGaussianBlur stdDeviation="5"/>
<feComposite in2="hardAlpha" operator="out"/>
<feColorMatrix type="matrix" values="0 0 0 0 0.360784 0 0 0 0 0.239216 0 0 0 0 1 0 0 0 0.4 0"/>
<feBlend mode="normal" in2="BackgroundImageFix" result="effect1_dropShadow_571_2"/>
<feBlend mode="normal" in="SourceGraphic" in2="effect1_dropShadow_571_2" result="shape"/>
</filter>
<filter id="filter13_d_571_2" x="239.34" y="780.604" width="40.0052" height="40.0051" filterUnits="userSpaceOnUse" color-interpolation-filters="sRGB">
<feFlood flood-opacity="0" result="BackgroundImageFix"/>
<feColorMatrix in="SourceAlpha" type="matrix" values="0 0 0 0 0 0 0 0 0 0 0 0 0 0 0 0 0 0 127 0" result="hardAlpha"/>
<feOffset/>
<feGaussianBlur stdDeviation="5"/>
<feComposite in2="hardAlpha" operator="out"/>
<feColorMatrix type="matrix" values="0 0 0 0 0.360784 0 0 0 0 0.239216 0 0 0 0 1 0 0 0 0.4 0"/>
<feBlend mode="normal" in2="BackgroundImageFix" result="effect1_dropShadow_571_2"/>
<feBlend mode="normal" in="SourceGraphic" in2="effect1_dropShadow_571_2" result="shape"/>
</filter>
<filter id="filter14_d_571_2" x="186.687" y="464.238" width="40.0047" height="40.0046" filterUnits="userSpaceOnUse" color-interpolation-filters="sRGB">
<feFlood flood-opacity="0" result="BackgroundImageFix"/>
<feColorMatrix in="SourceAlpha" type="matrix" values="0 0 0 0 0 0 0 0 0 0 0 0 0 0 0 0 0 0 127 0" result="hardAlpha"/>
<feOffset/>
<feGaussianBlur stdDeviation="5"/>
<feComposite in2="hardAlpha" operator="out"/>
<feColorMatrix type="matrix" values="0 0 0 0 0.360784 0 0 0 0 0.239216 0 0 0 0 1 0 0 0 0.4 0"/>
<feBlend mode="normal" in2="BackgroundImageFix" result="effect1_dropShadow_571_2"/>
<feBlend mode="normal" in="SourceGraphic" in2="effect1_dropShadow_571_2" result="shape"/>
</filter>
<filter id="filter15_d_571_2" x="41.1258" y="608.132" width="40.0001" height="40.0002" filterUnits="userSpaceOnUse" color-interpolation-filters="sRGB">
<feFlood flood-opacity="0" result="BackgroundImageFix"/>
<feColorMatrix in="SourceAlpha" type="matrix" values="0 0 0 0 0 0 0 0 0 0 0 0 0 0 0 0 0 0 127 0" result="hardAlpha"/>
<feOffset/>
<feGaussianBlur stdDeviation="5"/>
<feComposite in2="hardAlpha" operator="out"/>
<feColorMatrix type="matrix" values="0 0 0 0 0.360784 0 0 0 0 0.239216 0 0 0 0 1 0 0 0 0.4 0"/>
<feBlend mode="normal" in2="BackgroundImageFix" result="effect1_dropShadow_571_2"/>
<feBlend mode="normal" in="SourceGraphic" in2="effect1_dropShadow_571_2" result="shape"/>
</filter>
</defs>
</svg>
