<svg width="390" height="800" viewBox="0 0 390 800" fill="none" xmlns="http://www.w3.org/2000/svg">
<g opacity="0.2">
<g filter="url(#filter0_d_581_6)">
<circle cx="65.7006" cy="396.951" r="20.122" transform="rotate(-116 65.7006 396.951)" fill="#D53330"/>
</g>
<path d="M41.4373 407.293C43.625 406.226 46.3904 406.321 46.3904 406.321C46.3904 406.321 44.7958 407.821 42.8596 410.209C40.9234 412.597 38.0189 416.18 35.9128 415.041C33.8068 413.902 39.2497 408.36 41.4373 407.293Z" stroke="black"/>
<path d="M49.5589 412.818L43.2598 399.903C43.2598 399.903 46.2164 396.297 46.8694 398.142C47.078 398.732 46.6358 398.972 46.9836 399.685C47.3315 400.399 47.8542 400.161 48.1292 400.725C48.4042 401.289 47.8956 401.555 48.2435 402.268C48.5914 402.982 49.114 402.744 49.389 403.308C49.6641 403.872 49.1554 404.138 49.5033 404.851C49.8512 405.565 50.3738 405.327 50.6488 405.891C50.9239 406.455 50.4152 406.721 50.7631 407.434C51.111 408.148 51.6336 407.91 51.9087 408.474C52.1837 409.038 51.675 409.304 52.0229 410.017C52.3708 410.731 52.8325 410.53 53.1685 411.057C54.2201 412.708 49.5589 412.818 49.5589 412.818Z" fill="#F8B229"/>
<g filter="url(#filter1_d_581_6)">
<circle cx="331.074" cy="713.167" r="20.122" transform="rotate(10 331.074 713.167)" fill="#D53330"/>
</g>
<path d="M336.969 687.459C336.546 689.856 334.844 692.037 334.844 692.037C334.844 692.037 334.568 689.866 333.773 686.895C332.979 683.925 331.788 679.469 333.947 678.435C336.107 677.4 337.391 685.062 336.969 687.459Z" stroke="black"/>
<path d="M327.725 690.782L341.876 693.277C341.876 693.277 343.055 697.788 341.179 697.232C340.579 697.054 340.645 696.555 339.863 696.417C339.082 696.28 338.966 696.842 338.348 696.733C337.731 696.624 337.815 696.056 337.033 695.918C336.251 695.781 336.136 696.343 335.518 696.234C334.9 696.125 334.984 695.557 334.203 695.419C333.421 695.282 333.306 695.844 332.688 695.735C332.07 695.626 332.154 695.058 331.373 694.92C330.591 694.783 330.476 695.345 329.858 695.236C329.24 695.127 329.324 694.559 328.542 694.421C327.761 694.284 327.652 694.775 327.028 694.737C325.074 694.618 327.725 690.782 327.725 690.782Z" fill="#F8B229"/>
<g filter="url(#filter2_d_581_6)">
<circle cx="79.8449" cy="670.093" r="20.122" transform="rotate(-88 79.8449 670.093)" fill="#F8B229"/>
</g>
<path d="M53.5666 667.833C55.9991 667.918 58.3961 669.3 58.3961 669.3C58.3961 669.3 56.2842 669.875 53.4533 671.075C50.6225 672.275 46.3761 674.075 45.0512 672.08C43.7262 670.086 51.1341 667.748 53.5666 667.833Z" stroke="black"/>
<path d="M58.1438 676.524L58.6453 662.163C58.6453 662.163 62.9483 660.368 62.6588 662.303C62.5663 662.922 62.063 662.926 62.0353 663.719C62.0076 664.513 62.5804 664.549 62.5585 665.176C62.5366 665.803 61.9627 665.798 61.935 666.592C61.9073 667.385 62.4801 667.421 62.4582 668.048C62.4363 668.675 61.8624 668.671 61.8347 669.464C61.807 670.257 62.3798 670.293 62.3579 670.92C62.336 671.547 61.7621 671.543 61.7344 672.336C61.7067 673.129 62.2795 673.165 62.2576 673.792C62.2357 674.419 61.6618 674.415 61.6341 675.208C61.6064 676.001 62.1082 676.041 62.1573 676.664C62.3111 678.615 58.1438 676.524 58.1438 676.524Z" fill="#D53330"/>
<g filter="url(#filter3_d_581_6)">
<circle cx="149.499" cy="216.61" r="20.122" transform="rotate(74 149.499 216.61)" fill="#F8B229"/>
</g>
<path d="M175.19 210.639C172.85 211.31 170.143 210.736 170.143 210.736C170.143 210.736 171.974 209.536 174.295 207.52C176.617 205.504 180.099 202.481 181.976 203.968C183.852 205.455 177.529 209.968 175.19 210.639Z" stroke="black"/>
<path d="M168.151 203.788L172.111 217.6C172.111 217.6 168.574 220.637 168.251 218.707C168.148 218.091 168.625 217.931 168.407 217.168C168.188 216.405 167.632 216.548 167.459 215.945C167.286 215.342 167.833 215.168 167.614 214.405C167.396 213.642 166.84 213.785 166.667 213.182C166.494 212.579 167.041 212.406 166.822 211.643C166.603 210.88 166.048 211.023 165.875 210.42C165.702 209.817 166.249 209.643 166.03 208.88C165.811 208.117 165.255 208.26 165.083 207.657C164.91 207.054 165.457 206.881 165.238 206.118C165.019 205.355 164.53 205.472 164.29 204.895C163.541 203.087 168.151 203.788 168.151 203.788Z" fill="#D53330"/>
<g filter="url(#filter4_d_581_6)">
<circle cx="71.3155" cy="71.2149" r="20.122" transform="rotate(-111 71.3155 71.2149)" fill="#FF3399"/>
</g>
<path d="M46.2432 79.4024C48.5155 78.5301 51.2621 78.8659 51.2621 78.8659C51.2621 78.8659 49.5429 80.2209 47.4059 82.4313C45.2689 84.6418 42.0632 87.9575 40.0644 86.6396C38.0656 85.3217 43.9708 80.2746 46.2432 79.4024Z" stroke="black"/>
<path d="M53.8524 85.6141L48.7029 72.1992C48.7029 72.1992 51.9625 68.8654 52.4522 70.76C52.6086 71.3653 52.1471 71.5662 52.4315 72.3071C52.7159 73.048 53.2572 72.8573 53.4821 73.443C53.7069 74.0287 53.177 74.2492 53.4614 74.9901C53.7458 75.731 54.2871 75.5403 54.512 76.126C54.7368 76.7117 54.2069 76.9322 54.4913 77.6731C54.7757 78.414 55.317 78.2232 55.5419 78.809C55.7667 79.3947 55.2368 79.6152 55.5212 80.3561C55.8056 81.0969 56.3469 80.9062 56.5718 81.4919C56.7966 82.0777 56.2667 82.2981 56.5511 83.039C56.8355 83.7799 57.3129 83.6205 57.6017 84.1749C58.5055 85.9106 53.8524 85.6141 53.8524 85.6141Z" fill="#5C3DFF"/>
<g filter="url(#filter5_d_581_6)">
<circle cx="290.894" cy="345.642" r="20.122" transform="rotate(168 290.894 345.642)" fill="#FF3399"/>
</g>
<path d="M295.058 371.686C294.552 369.305 295.313 366.645 295.313 366.645C295.313 366.645 296.383 368.555 298.232 371.012C300.081 373.468 302.854 377.153 301.24 378.921C299.625 380.689 295.564 374.067 295.058 371.686Z" stroke="black"/>
<path d="M302.384 365.142L288.328 368.13C288.328 368.13 285.546 364.389 287.493 364.202C288.116 364.142 288.242 364.629 289.018 364.464C289.795 364.299 289.691 363.735 290.305 363.604C290.918 363.474 291.053 364.032 291.829 363.867C292.606 363.702 292.502 363.137 293.116 363.007C293.729 362.876 293.864 363.434 294.64 363.269C295.417 363.104 295.313 362.54 295.927 362.409C296.54 362.279 296.675 362.837 297.451 362.672C298.228 362.507 298.124 361.942 298.738 361.812C299.351 361.681 299.486 362.239 300.263 362.074C301.039 361.909 300.956 361.413 301.549 361.214C303.404 360.593 302.384 365.142 302.384 365.142Z" fill="#5C3DFF"/>
<g filter="url(#filter6_d_581_6)">
<circle cx="321.571" cy="145.473" r="20.122" transform="rotate(28 321.571 145.473)" fill="#5C3DFF"/>
</g>
<path d="M335.122 122.845C333.98 124.994 331.686 126.542 331.686 126.542C331.686 126.542 332.095 124.392 332.258 121.322C332.42 118.251 332.664 113.646 335.037 113.329C337.411 113.013 336.265 120.696 335.122 122.845Z" stroke="black"/>
<path d="M325.304 123.149L337.992 129.895C337.992 129.895 337.719 134.549 336.106 133.441C335.591 133.087 335.807 132.632 335.107 132.26C334.406 131.887 334.123 132.386 333.569 132.092C333.015 131.797 333.27 131.283 332.569 130.91C331.869 130.538 331.585 131.037 331.031 130.742C330.477 130.448 330.733 129.934 330.032 129.561C329.331 129.189 329.048 129.688 328.494 129.393C327.94 129.099 328.195 128.585 327.494 128.212C326.794 127.84 326.51 128.339 325.956 128.044C325.402 127.75 325.658 127.235 324.957 126.863C324.256 126.49 324.001 126.924 323.419 126.695C321.598 125.978 325.304 123.149 325.304 123.149Z" fill="#FF3399"/>
<g filter="url(#filter7_d_581_6)">
<circle cx="202.196" cy="543.664" r="20.122" transform="rotate(-68 202.196 543.664)" fill="#5C3DFF"/>
</g>
<path d="M178.275 532.553C180.532 533.465 182.311 535.584 182.311 535.584C182.311 535.584 180.13 535.402 177.06 535.561C173.989 535.721 169.383 535.959 168.82 533.632C168.257 531.305 176.018 531.641 178.275 532.553Z" stroke="black"/>
<path d="M179.604 542.286L184.986 528.963C184.986 528.963 189.644 528.747 188.71 530.467C188.412 531.016 187.937 530.849 187.64 531.584C187.342 532.32 187.868 532.55 187.633 533.132C187.398 533.713 186.86 533.513 186.563 534.249C186.266 534.985 186.792 535.214 186.557 535.796C186.322 536.378 185.784 536.178 185.487 536.914C185.189 537.649 185.715 537.879 185.48 538.461C185.245 539.042 184.707 538.842 184.41 539.578C184.113 540.314 184.639 540.544 184.404 541.125C184.169 541.707 183.631 541.507 183.334 542.243C183.036 542.979 183.494 543.188 183.327 543.79C182.804 545.676 179.604 542.286 179.604 542.286Z" fill="#FF3399"/>
<path d="M204.126 120.778C202.67 121.279 201.218 120.016 201.511 118.505L205.973 95.5518C206.267 94.0405 208.086 93.414 209.248 94.424L226.895 109.764C228.057 110.775 227.69 112.664 226.234 113.165L204.126 120.778Z" fill="#0C351F"/>
<path d="M210.309 112.902C208.853 113.404 207.401 112.141 207.695 110.63L212.982 83.4262C213.276 81.9148 215.096 81.2883 216.258 82.2984L237.173 100.48C238.335 101.49 237.968 103.379 236.512 103.88L210.309 112.902Z" fill="#0C351F"/>
<path d="M217.903 104.929C216.447 105.43 214.995 104.167 215.289 102.656L221.403 71.2018C221.696 69.6905 223.516 69.0639 224.678 70.074L248.861 91.0961C250.023 92.1061 249.656 93.9953 248.2 94.4965L217.903 104.929Z" fill="#0C351F"/>
<path d="M98.2234 285.594C99.0844 286.871 98.2407 288.601 96.7049 288.708L73.3791 290.339C71.8433 290.446 70.7671 288.851 71.442 287.467L81.6923 266.451C82.3673 265.067 84.2871 264.933 85.148 266.209L98.2234 285.594Z" fill="#0C351F"/>
<path d="M89.0163 281.66C89.8772 282.937 89.0336 284.666 87.4977 284.774L59.8524 286.707C58.3166 286.814 57.2404 285.219 57.9153 283.835L70.0638 258.927C70.7387 257.543 72.6586 257.409 73.5195 258.685L89.0163 281.66Z" fill="#0C351F"/>
<path d="M79.3488 276.389C80.2098 277.665 79.3661 279.395 77.8303 279.502L45.8654 281.737C44.3295 281.845 43.2534 280.249 43.9283 278.866L57.975 250.066C58.6499 248.682 60.5697 248.547 61.4307 249.824L79.3488 276.389Z" fill="#0C351F"/>
<path d="M307.563 449.177C307.536 447.638 309.186 446.647 310.532 447.393L330.983 458.729C332.33 459.476 332.364 461.4 331.044 462.193L311.001 474.236C309.681 475.029 307.998 474.096 307.971 472.556L307.563 449.177Z" fill="#0C351F"/>
<path d="M313.142 457.491C313.115 455.952 314.765 454.961 316.111 455.707L340.35 469.143C341.696 469.889 341.73 471.813 340.41 472.606L316.655 486.879C315.336 487.672 313.653 486.739 313.626 485.2L313.142 457.491Z" fill="#0C351F"/>
<path d="M318.379 467.178C318.352 465.638 320.002 464.647 321.348 465.394L349.374 480.928C350.72 481.675 350.754 483.599 349.434 484.392L321.968 500.895C320.648 501.688 318.965 500.755 318.938 499.216L318.379 467.178Z" fill="#0C351F"/>
<path d="M68.4743 562.208C67.1546 561.415 67.1882 559.491 68.5348 558.745L88.9857 547.409C90.3323 546.662 91.9819 547.653 91.955 549.193L91.547 572.572C91.5201 574.111 89.8369 575.044 88.5172 574.251L68.4743 562.208Z" fill="#0C351F"/>
<path d="M78.4815 561.883C77.1618 561.09 77.1953 559.166 78.5419 558.419L102.78 544.984C104.127 544.237 105.776 545.229 105.749 546.768L105.266 574.477C105.239 576.016 103.556 576.949 102.236 576.156L78.4815 561.883Z" fill="#0C351F"/>
<path d="M89.4711 562.575C88.1514 561.782 88.185 559.858 89.5316 559.111L117.557 543.576C118.904 542.83 120.553 543.821 120.526 545.361L119.967 577.399C119.94 578.938 118.257 579.871 116.937 579.078L89.4711 562.575Z" fill="#0C351F"/>
<path d="M270.704 731.292C272.24 731.399 273.083 733.129 272.222 734.405L259.147 753.791C258.286 755.067 256.366 754.933 255.691 753.549L245.441 732.533C244.766 731.149 245.842 729.553 247.378 729.661L270.704 731.292Z" fill="#0C351F"/>
<path d="M261.935 736.125C263.471 736.232 264.315 737.962 263.454 739.239L247.957 762.214C247.096 763.49 245.176 763.356 244.501 761.972L232.353 737.064C231.678 735.68 232.754 734.085 234.29 734.192L261.935 736.125Z" fill="#0C351F"/>
<path d="M251.829 740.498C253.365 740.605 254.209 742.335 253.348 743.611L235.43 770.176C234.569 771.452 232.649 771.318 231.974 769.934L217.927 741.134C217.252 739.751 218.328 738.155 219.864 738.263L251.829 740.498Z" fill="#0C351F"/>
</g>
<defs>
<filter id="filter0_d_581_6" x="35.5741" y="366.825" width="60.2531" height="60.253" filterUnits="userSpaceOnUse" color-interpolation-filters="sRGB">
<feFlood flood-opacity="0" result="BackgroundImageFix"/>
<feColorMatrix in="SourceAlpha" type="matrix" values="0 0 0 0 0 0 0 0 0 0 0 0 0 0 0 0 0 0 127 0" result="hardAlpha"/>
<feOffset/>
<feGaussianBlur stdDeviation="5"/>
<feComposite in2="hardAlpha" operator="out"/>
<feColorMatrix type="matrix" values="0 0 0 0 0.835294 0 0 0 0 0.2 0 0 0 0 0.188235 0 0 0 0.5 0"/>
<feBlend mode="normal" in2="BackgroundImageFix" result="effect1_dropShadow_581_6"/>
<feBlend mode="normal" in="SourceGraphic" in2="effect1_dropShadow_581_6" result="shape"/>
</filter>
<filter id="filter1_d_581_6" x="300.948" y="683.041" width="60.2507" height="60.2507" filterUnits="userSpaceOnUse" color-interpolation-filters="sRGB">
<feFlood flood-opacity="0" result="BackgroundImageFix"/>
<feColorMatrix in="SourceAlpha" type="matrix" values="0 0 0 0 0 0 0 0 0 0 0 0 0 0 0 0 0 0 127 0" result="hardAlpha"/>
<feOffset/>
<feGaussianBlur stdDeviation="5"/>
<feComposite in2="hardAlpha" operator="out"/>
<feColorMatrix type="matrix" values="0 0 0 0 0.835294 0 0 0 0 0.2 0 0 0 0 0.188235 0 0 0 0.5 0"/>
<feBlend mode="normal" in2="BackgroundImageFix" result="effect1_dropShadow_581_6"/>
<feBlend mode="normal" in="SourceGraphic" in2="effect1_dropShadow_581_6" result="shape"/>
</filter>
<filter id="filter2_d_581_6" x="49.7227" y="639.97" width="60.2444" height="60.2444" filterUnits="userSpaceOnUse" color-interpolation-filters="sRGB">
<feFlood flood-opacity="0" result="BackgroundImageFix"/>
<feColorMatrix in="SourceAlpha" type="matrix" values="0 0 0 0 0 0 0 0 0 0 0 0 0 0 0 0 0 0 127 0" result="hardAlpha"/>
<feOffset/>
<feGaussianBlur stdDeviation="5"/>
<feComposite in2="hardAlpha" operator="out"/>
<feColorMatrix type="matrix" values="0 0 0 0 0.972549 0 0 0 0 0.698039 0 0 0 0 0.160784 0 0 0 0.5 0"/>
<feBlend mode="normal" in2="BackgroundImageFix" result="effect1_dropShadow_581_6"/>
<feBlend mode="normal" in="SourceGraphic" in2="effect1_dropShadow_581_6" result="shape"/>
</filter>
<filter id="filter3_d_581_6" x="119.372" y="186.483" width="60.2543" height="60.2543" filterUnits="userSpaceOnUse" color-interpolation-filters="sRGB">
<feFlood flood-opacity="0" result="BackgroundImageFix"/>
<feColorMatrix in="SourceAlpha" type="matrix" values="0 0 0 0 0 0 0 0 0 0 0 0 0 0 0 0 0 0 127 0" result="hardAlpha"/>
<feOffset/>
<feGaussianBlur stdDeviation="5"/>
<feComposite in2="hardAlpha" operator="out"/>
<feColorMatrix type="matrix" values="0 0 0 0 0.972549 0 0 0 0 0.698039 0 0 0 0 0.160784 0 0 0 0.5 0"/>
<feBlend mode="normal" in2="BackgroundImageFix" result="effect1_dropShadow_581_6"/>
<feBlend mode="normal" in="SourceGraphic" in2="effect1_dropShadow_581_6" result="shape"/>
</filter>
<filter id="filter4_d_581_6" x="41.1881" y="41.0875" width="60.2548" height="60.2548" filterUnits="userSpaceOnUse" color-interpolation-filters="sRGB">
<feFlood flood-opacity="0" result="BackgroundImageFix"/>
<feColorMatrix in="SourceAlpha" type="matrix" values="0 0 0 0 0 0 0 0 0 0 0 0 0 0 0 0 0 0 127 0" result="hardAlpha"/>
<feOffset/>
<feGaussianBlur stdDeviation="5"/>
<feComposite in2="hardAlpha" operator="out"/>
<feColorMatrix type="matrix" values="0 0 0 0 1 0 0 0 0 0.2 0 0 0 0 0.6 0 0 0 0.5 0"/>
<feBlend mode="normal" in2="BackgroundImageFix" result="effect1_dropShadow_581_6"/>
<feBlend mode="normal" in="SourceGraphic" in2="effect1_dropShadow_581_6" result="shape"/>
</filter>
<filter id="filter5_d_581_6" x="260.768" y="315.516" width="60.2522" height="60.2522" filterUnits="userSpaceOnUse" color-interpolation-filters="sRGB">
<feFlood flood-opacity="0" result="BackgroundImageFix"/>
<feColorMatrix in="SourceAlpha" type="matrix" values="0 0 0 0 0 0 0 0 0 0 0 0 0 0 0 0 0 0 127 0" result="hardAlpha"/>
<feOffset/>
<feGaussianBlur stdDeviation="5"/>
<feComposite in2="hardAlpha" operator="out"/>
<feColorMatrix type="matrix" values="0 0 0 0 1 0 0 0 0 0.2 0 0 0 0 0.6 0 0 0 0.5 0"/>
<feBlend mode="normal" in2="BackgroundImageFix" result="effect1_dropShadow_581_6"/>
<feBlend mode="normal" in="SourceGraphic" in2="effect1_dropShadow_581_6" result="shape"/>
</filter>
<filter id="filter6_d_581_6" x="291.446" y="115.347" width="60.2517" height="60.2519" filterUnits="userSpaceOnUse" color-interpolation-filters="sRGB">
<feFlood flood-opacity="0" result="BackgroundImageFix"/>
<feColorMatrix in="SourceAlpha" type="matrix" values="0 0 0 0 0 0 0 0 0 0 0 0 0 0 0 0 0 0 127 0" result="hardAlpha"/>
<feOffset/>
<feGaussianBlur stdDeviation="5"/>
<feComposite in2="hardAlpha" operator="out"/>
<feColorMatrix type="matrix" values="0 0 0 0 0.360784 0 0 0 0 0.239216 0 0 0 0 1 0 0 0 0.5 0"/>
<feBlend mode="normal" in2="BackgroundImageFix" result="effect1_dropShadow_581_6"/>
<feBlend mode="normal" in="SourceGraphic" in2="effect1_dropShadow_581_6" result="shape"/>
</filter>
<filter id="filter7_d_581_6" x="172.068" y="513.537" width="60.2546" height="60.2546" filterUnits="userSpaceOnUse" color-interpolation-filters="sRGB">
<feFlood flood-opacity="0" result="BackgroundImageFix"/>
<feColorMatrix in="SourceAlpha" type="matrix" values="0 0 0 0 0 0 0 0 0 0 0 0 0 0 0 0 0 0 127 0" result="hardAlpha"/>
<feOffset/>
<feGaussianBlur stdDeviation="5"/>
<feComposite in2="hardAlpha" operator="out"/>
<feColorMatrix type="matrix" values="0 0 0 0 0.360784 0 0 0 0 0.239216 0 0 0 0 1 0 0 0 0.5 0"/>
<feBlend mode="normal" in2="BackgroundImageFix" result="effect1_dropShadow_581_6"/>
<feBlend mode="normal" in="SourceGraphic" in2="effect1_dropShadow_581_6" result="shape"/>
</filter>
</defs>
</svg>
