<svg width="390" height="800" viewBox="0 0 390 800" fill="none" xmlns="http://www.w3.org/2000/svg">
<g opacity="0.2">
<g filter="url(#filter0_d_581_6)">
<circle cx="77.0563" cy="380.097" r="20.122" transform="rotate(2 77.0563 380.097)" fill="#D53330"/>
</g>
<path d="M79.3162 353.819C79.2313 356.251 77.849 358.648 77.849 358.648C77.849 358.648 77.2735 356.536 76.0737 353.706C74.874 350.875 73.0744 346.628 75.0685 345.303C77.0627 343.979 79.4012 351.386 79.3162 353.819Z" stroke="black"/>
<path d="M70.6251 358.396L84.9856 358.898C84.9856 358.898 86.7808 363.201 84.8455 362.911C84.2272 362.819 84.2225 362.315 83.4294 362.288C82.6363 362.26 82.6004 362.833 81.9734 362.811C81.3463 362.789 81.3504 362.215 80.5573 362.187C79.7642 362.16 79.7283 362.732 79.1012 362.711C78.4742 362.689 78.4783 362.115 77.6852 362.087C76.8921 362.059 76.8562 362.632 76.2291 362.61C75.6021 362.588 75.6062 362.014 74.8131 361.987C74.02 361.959 73.984 362.532 73.357 362.51C72.73 362.488 72.7341 361.914 71.941 361.886C71.1479 361.859 71.1081 362.361 70.4849 362.41C68.5341 362.563 70.6251 358.396 70.6251 358.396Z" fill="#F8B229"/>
<g filter="url(#filter1_d_581_6)">
<circle cx="312.37" cy="709.05" r="20.122" transform="rotate(42 312.37 709.05)" fill="#D53330"/>
</g>
<path d="M330.993 690.373C329.364 692.181 326.764 693.129 326.764 693.129C326.764 693.129 327.681 691.141 328.582 688.202C329.482 685.262 330.833 680.852 333.212 681.119C335.592 681.386 332.621 688.564 330.993 690.373Z" stroke="black"/>
<path d="M321.393 688.292L332.071 697.907C332.071 697.907 330.681 702.358 329.384 700.892C328.97 700.424 329.29 700.035 328.7 699.504C328.11 698.973 327.715 699.389 327.248 698.969C326.782 698.549 327.154 698.112 326.564 697.581C325.975 697.05 325.579 697.466 325.113 697.046C324.646 696.626 325.018 696.189 324.429 695.658C323.839 695.127 323.443 695.543 322.977 695.123C322.511 694.703 322.883 694.266 322.293 693.735C321.703 693.204 321.308 693.62 320.841 693.2C320.375 692.78 320.747 692.343 320.157 691.812C319.568 691.281 319.215 691.64 318.706 691.277C317.112 690.141 321.393 688.292 321.393 688.292Z" fill="#F8B229"/>
<g filter="url(#filter2_d_581_6)">
<circle cx="58.5032" cy="663.231" r="20.122" transform="rotate(-43 58.5032 663.231)" fill="#F8B229"/>
</g>
<path d="M41.5198 643.052C43.1798 644.832 43.8973 647.504 43.8973 647.504C43.8973 647.504 41.997 646.418 39.1469 645.264C36.2968 644.111 32.0217 642.381 32.4949 640.034C32.9681 637.687 39.8598 641.272 41.5198 643.052Z" stroke="black"/>
<path d="M38.6107 652.434L49.1198 642.634C49.1198 642.634 53.4319 644.407 51.8587 645.571C51.3561 645.943 50.9969 645.59 50.4165 646.132C49.8361 646.673 50.2157 647.103 49.7569 647.531C49.298 647.959 48.8951 647.55 48.3147 648.091C47.7343 648.633 48.1139 649.063 47.6551 649.491C47.1962 649.919 46.7933 649.51 46.2129 650.051C45.6325 650.593 46.0121 651.023 45.5533 651.451C45.0944 651.879 44.6915 651.47 44.1111 652.011C43.5307 652.553 43.9103 652.983 43.4514 653.411C42.9926 653.839 42.5897 653.43 42.0093 653.971C41.4289 654.513 41.7556 654.896 41.3496 655.371C40.0789 656.859 38.6107 652.434 38.6107 652.434Z" fill="#D53330"/>
<g filter="url(#filter3_d_581_6)">
<circle cx="216.316" cy="232.678" r="20.122" transform="rotate(-170 216.316 232.678)" fill="#F8B229"/>
</g>
<path d="M210.42 258.386C210.843 255.989 212.546 253.808 212.546 253.808C212.546 253.808 212.822 255.979 213.616 258.95C214.41 261.92 215.601 266.375 213.442 267.41C211.283 268.445 209.998 260.783 210.42 258.386Z" stroke="black"/>
<path d="M219.664 255.063L205.513 252.568C205.513 252.568 204.334 248.057 206.211 248.613C206.81 248.791 206.744 249.29 207.526 249.427C208.308 249.565 208.423 249.003 209.041 249.112C209.659 249.221 209.575 249.789 210.356 249.926C211.138 250.064 211.253 249.502 211.871 249.611C212.489 249.72 212.405 250.288 213.186 250.426C213.968 250.563 214.083 250.001 214.701 250.11C215.319 250.219 215.235 250.787 216.017 250.925C216.798 251.062 216.913 250.5 217.531 250.609C218.149 250.718 218.065 251.286 218.847 251.424C219.628 251.561 219.738 251.07 220.361 251.108C222.315 251.227 219.664 255.063 219.664 255.063Z" fill="#D53330"/>
<g filter="url(#filter4_d_581_6)">
<circle cx="68.4906" cy="76.433" r="20.122" transform="rotate(115 68.4906 76.433)" fill="#FF3399"/>
</g>
<path d="M91.7969 88.781C89.591 87.7524 87.9246 85.5434 87.9246 85.5434C87.9246 85.5434 90.0935 85.8388 93.1681 85.8405C96.2427 85.8422 100.855 85.8449 101.295 88.1983C101.736 90.5516 94.0029 89.8097 91.7969 88.781Z" stroke="black"/>
<path d="M90.9794 78.9923L84.9067 92.0153C84.9067 92.0153 80.2443 91.9865 81.267 90.3181C81.5937 89.7852 82.0588 89.9775 82.3942 89.2583C82.7296 88.539 82.2164 88.2821 82.4815 87.7135C82.7467 87.1449 83.2734 87.3729 83.6087 86.6537C83.9441 85.9344 83.4309 85.6775 83.6961 85.1089C83.9612 84.5403 84.4879 84.7683 84.8233 84.0491C85.1587 83.3298 84.6455 83.0729 84.9106 82.5043C85.1757 81.9357 85.7024 82.1637 86.0378 81.4445C86.3732 80.7252 85.86 80.4683 86.1251 79.8997C86.3903 79.3311 86.917 79.5591 87.2524 78.8399C87.5878 78.1206 87.1414 77.888 87.3397 77.2951C87.9604 75.4392 90.9794 78.9923 90.9794 78.9923Z" fill="#5C3DFF"/>
<g filter="url(#filter5_d_581_6)">
<circle cx="341.721" cy="395.062" r="20.122" transform="rotate(-65 341.721 395.062)" fill="#FF3399"/>
</g>
<path d="M318.415 382.714C320.621 383.742 322.287 385.951 322.287 385.951C322.287 385.951 320.118 385.656 317.044 385.654C313.969 385.653 309.357 385.65 308.917 383.297C308.476 380.943 316.209 381.685 318.415 382.714Z" stroke="black"/>
<path d="M319.233 392.503L325.305 379.48C325.305 379.48 329.968 379.508 328.945 381.177C328.618 381.71 328.153 381.517 327.818 382.237C327.482 382.956 327.996 383.213 327.73 383.781C327.465 384.35 326.939 384.122 326.603 384.841C326.268 385.56 326.781 385.817 326.516 386.386C326.251 386.955 325.724 386.727 325.389 387.446C325.053 388.165 325.566 388.422 325.301 388.991C325.036 389.559 324.509 389.331 324.174 390.05C323.839 390.77 324.352 391.027 324.087 391.595C323.822 392.164 323.295 391.936 322.96 392.655C322.624 393.374 323.07 393.607 322.872 394.2C322.252 396.056 319.233 392.503 319.233 392.503Z" fill="#5C3DFF"/>
<g filter="url(#filter6_d_581_6)">
<circle cx="322.594" cy="122.269" r="20.122" transform="rotate(-112 322.594 122.269)" fill="#5C3DFF"/>
</g>
<path d="M297.669 130.893C299.925 129.981 302.677 130.269 302.677 130.269C302.677 130.269 300.982 131.654 298.884 133.901C296.786 136.149 293.639 139.52 291.617 138.237C289.596 136.954 295.412 131.805 297.669 130.893Z" stroke="black"/>
<path d="M305.385 136.971L300.002 123.648C300.002 123.648 303.203 120.258 303.726 122.143C303.893 122.746 303.435 122.955 303.732 123.691C304.03 124.427 304.567 124.226 304.802 124.808C305.037 125.39 304.511 125.619 304.809 126.355C305.106 127.091 305.644 126.891 305.879 127.473C306.114 128.054 305.588 128.284 305.885 129.02C306.183 129.756 306.721 129.556 306.956 130.137C307.191 130.719 306.665 130.949 306.962 131.684C307.259 132.42 307.797 132.22 308.032 132.802C308.267 133.384 307.741 133.613 308.038 134.349C308.336 135.085 308.81 134.917 309.109 135.466C310.043 137.186 305.385 136.971 305.385 136.971Z" fill="#FF3399"/>
<g filter="url(#filter7_d_581_6)">
<circle cx="202.536" cy="484.364" r="20.122" transform="rotate(-138 202.536 484.364)" fill="#5C3DFF"/>
</g>
<path d="M183.913 503.042C185.542 501.233 188.141 500.285 188.141 500.285C188.141 500.285 187.225 502.273 186.324 505.213C185.424 508.153 184.073 512.562 181.693 512.295C179.314 512.029 182.284 504.851 183.913 503.042Z" stroke="black"/>
<path d="M193.513 505.122L182.835 495.507C182.835 495.507 184.225 491.057 185.522 492.523C185.936 492.991 185.616 493.38 186.206 493.911C186.795 494.442 187.191 494.026 187.657 494.446C188.124 494.866 187.752 495.303 188.341 495.834C188.931 496.365 189.327 495.949 189.793 496.369C190.259 496.788 189.887 497.226 190.477 497.757C191.067 498.288 191.463 497.872 191.929 498.292C192.395 498.711 192.023 499.148 192.613 499.68C193.203 500.211 193.598 499.795 194.064 500.215C194.531 500.634 194.159 501.071 194.748 501.603C195.338 502.134 195.691 501.775 196.2 502.138C197.793 503.274 193.513 505.122 193.513 505.122Z" fill="#FF3399"/>
</g>
<defs>
<filter id="filter0_d_581_6" x="46.9341" y="349.975" width="60.2444" height="60.2444" filterUnits="userSpaceOnUse" color-interpolation-filters="sRGB">
<feFlood flood-opacity="0" result="BackgroundImageFix"/>
<feColorMatrix in="SourceAlpha" type="matrix" values="0 0 0 0 0 0 0 0 0 0 0 0 0 0 0 0 0 0 127 0" result="hardAlpha"/>
<feOffset/>
<feGaussianBlur stdDeviation="5"/>
<feComposite in2="hardAlpha" operator="out"/>
<feColorMatrix type="matrix" values="0 0 0 0 0.835294 0 0 0 0 0.2 0 0 0 0 0.188235 0 0 0 0.5 0"/>
<feBlend mode="normal" in2="BackgroundImageFix" result="effect1_dropShadow_581_6"/>
<feBlend mode="normal" in="SourceGraphic" in2="effect1_dropShadow_581_6" result="shape"/>
</filter>
<filter id="filter1_d_581_6" x="282.248" y="678.928" width="60.2443" height="60.2443" filterUnits="userSpaceOnUse" color-interpolation-filters="sRGB">
<feFlood flood-opacity="0" result="BackgroundImageFix"/>
<feColorMatrix in="SourceAlpha" type="matrix" values="0 0 0 0 0 0 0 0 0 0 0 0 0 0 0 0 0 0 127 0" result="hardAlpha"/>
<feOffset/>
<feGaussianBlur stdDeviation="5"/>
<feComposite in2="hardAlpha" operator="out"/>
<feColorMatrix type="matrix" values="0 0 0 0 0.835294 0 0 0 0 0.2 0 0 0 0 0.188235 0 0 0 0.5 0"/>
<feBlend mode="normal" in2="BackgroundImageFix" result="effect1_dropShadow_581_6"/>
<feBlend mode="normal" in="SourceGraphic" in2="effect1_dropShadow_581_6" result="shape"/>
</filter>
<filter id="filter2_d_581_6" x="28.3812" y="633.109" width="60.244" height="60.244" filterUnits="userSpaceOnUse" color-interpolation-filters="sRGB">
<feFlood flood-opacity="0" result="BackgroundImageFix"/>
<feColorMatrix in="SourceAlpha" type="matrix" values="0 0 0 0 0 0 0 0 0 0 0 0 0 0 0 0 0 0 127 0" result="hardAlpha"/>
<feOffset/>
<feGaussianBlur stdDeviation="5"/>
<feComposite in2="hardAlpha" operator="out"/>
<feColorMatrix type="matrix" values="0 0 0 0 0.972549 0 0 0 0 0.698039 0 0 0 0 0.160784 0 0 0 0.5 0"/>
<feBlend mode="normal" in2="BackgroundImageFix" result="effect1_dropShadow_581_6"/>
<feBlend mode="normal" in="SourceGraphic" in2="effect1_dropShadow_581_6" result="shape"/>
</filter>
<filter id="filter3_d_581_6" x="186.19" y="202.553" width="60.2506" height="60.2507" filterUnits="userSpaceOnUse" color-interpolation-filters="sRGB">
<feFlood flood-opacity="0" result="BackgroundImageFix"/>
<feColorMatrix in="SourceAlpha" type="matrix" values="0 0 0 0 0 0 0 0 0 0 0 0 0 0 0 0 0 0 127 0" result="hardAlpha"/>
<feOffset/>
<feGaussianBlur stdDeviation="5"/>
<feComposite in2="hardAlpha" operator="out"/>
<feColorMatrix type="matrix" values="0 0 0 0 0.972549 0 0 0 0 0.698039 0 0 0 0 0.160784 0 0 0 0.5 0"/>
<feBlend mode="normal" in2="BackgroundImageFix" result="effect1_dropShadow_581_6"/>
<feBlend mode="normal" in="SourceGraphic" in2="effect1_dropShadow_581_6" result="shape"/>
</filter>
<filter id="filter4_d_581_6" x="38.3639" y="46.3062" width="60.2534" height="60.2535" filterUnits="userSpaceOnUse" color-interpolation-filters="sRGB">
<feFlood flood-opacity="0" result="BackgroundImageFix"/>
<feColorMatrix in="SourceAlpha" type="matrix" values="0 0 0 0 0 0 0 0 0 0 0 0 0 0 0 0 0 0 127 0" result="hardAlpha"/>
<feOffset/>
<feGaussianBlur stdDeviation="5"/>
<feComposite in2="hardAlpha" operator="out"/>
<feColorMatrix type="matrix" values="0 0 0 0 1 0 0 0 0 0.2 0 0 0 0 0.6 0 0 0 0.5 0"/>
<feBlend mode="normal" in2="BackgroundImageFix" result="effect1_dropShadow_581_6"/>
<feBlend mode="normal" in="SourceGraphic" in2="effect1_dropShadow_581_6" result="shape"/>
</filter>
<filter id="filter5_d_581_6" x="311.595" y="364.935" width="60.2534" height="60.2534" filterUnits="userSpaceOnUse" color-interpolation-filters="sRGB">
<feFlood flood-opacity="0" result="BackgroundImageFix"/>
<feColorMatrix in="SourceAlpha" type="matrix" values="0 0 0 0 0 0 0 0 0 0 0 0 0 0 0 0 0 0 127 0" result="hardAlpha"/>
<feOffset/>
<feGaussianBlur stdDeviation="5"/>
<feComposite in2="hardAlpha" operator="out"/>
<feColorMatrix type="matrix" values="0 0 0 0 1 0 0 0 0 0.2 0 0 0 0 0.6 0 0 0 0.5 0"/>
<feBlend mode="normal" in2="BackgroundImageFix" result="effect1_dropShadow_581_6"/>
<feBlend mode="normal" in="SourceGraphic" in2="effect1_dropShadow_581_6" result="shape"/>
</filter>
<filter id="filter6_d_581_6" x="292.467" y="92.1418" width="60.2545" height="60.2546" filterUnits="userSpaceOnUse" color-interpolation-filters="sRGB">
<feFlood flood-opacity="0" result="BackgroundImageFix"/>
<feColorMatrix in="SourceAlpha" type="matrix" values="0 0 0 0 0 0 0 0 0 0 0 0 0 0 0 0 0 0 127 0" result="hardAlpha"/>
<feOffset/>
<feGaussianBlur stdDeviation="5"/>
<feComposite in2="hardAlpha" operator="out"/>
<feColorMatrix type="matrix" values="0 0 0 0 0.360784 0 0 0 0 0.239216 0 0 0 0 1 0 0 0 0.5 0"/>
<feBlend mode="normal" in2="BackgroundImageFix" result="effect1_dropShadow_581_6"/>
<feBlend mode="normal" in="SourceGraphic" in2="effect1_dropShadow_581_6" result="shape"/>
</filter>
<filter id="filter7_d_581_6" x="172.413" y="454.242" width="60.2443" height="60.2443" filterUnits="userSpaceOnUse" color-interpolation-filters="sRGB">
<feFlood flood-opacity="0" result="BackgroundImageFix"/>
<feColorMatrix in="SourceAlpha" type="matrix" values="0 0 0 0 0 0 0 0 0 0 0 0 0 0 0 0 0 0 127 0" result="hardAlpha"/>
<feOffset/>
<feGaussianBlur stdDeviation="5"/>
<feComposite in2="hardAlpha" operator="out"/>
<feColorMatrix type="matrix" values="0 0 0 0 0.360784 0 0 0 0 0.239216 0 0 0 0 1 0 0 0 0.5 0"/>
<feBlend mode="normal" in2="BackgroundImageFix" result="effect1_dropShadow_581_6"/>
<feBlend mode="normal" in="SourceGraphic" in2="effect1_dropShadow_581_6" result="shape"/>
</filter>
</defs>
</svg>
