<svg width="390" height="800" viewBox="0 0 390 800" fill="none" xmlns="http://www.w3.org/2000/svg">
<g opacity="0.2">
<g filter="url(#filter0_d_581_6)">
<circle cx="61.3367" cy="85.6588" r="20.122" transform="rotate(14 61.3367 85.6588)" fill="#D53330"/>
</g>
<path d="M69.0108 60.4246C68.422 62.7863 66.5716 64.8435 66.5716 64.8435C66.5716 64.8435 66.4477 62.6581 65.8627 59.6397C65.2777 56.6213 64.4004 52.0935 66.6264 51.2121C68.8525 50.3307 69.5997 58.0629 69.0108 60.4246Z" stroke="black"/>
<path d="M59.5579 63.0948L73.5004 66.571C73.5004 66.571 74.3617 71.1533 72.5289 70.4677C71.9434 70.2487 72.0434 69.7554 71.2734 69.5634C70.5034 69.3714 70.3491 69.9243 69.7404 69.7725C69.1316 69.6207 69.2549 69.0602 68.4849 68.8682C67.7149 68.6762 67.5606 69.229 66.9519 69.0772C66.3431 68.9254 66.4664 68.3649 65.6964 68.1729C64.9264 67.9809 64.7721 68.5338 64.1634 68.382C63.5546 68.2302 63.6779 67.6697 62.9079 67.4777C62.1379 67.2857 61.9836 67.8385 61.3749 67.6867C60.7661 67.535 60.8895 66.9744 60.1194 66.7824C59.3494 66.5904 59.2062 67.073 58.5864 66.9915C56.6462 66.7363 59.5579 63.0948 59.5579 63.0948Z" fill="#F8B229"/>
<g filter="url(#filter1_d_581_6)">
<circle cx="318.695" cy="392.85" r="20.122" transform="rotate(-63 318.695 392.85)" fill="#D53330"/>
</g>
<path d="M295.834 379.696C298.003 380.801 299.591 383.066 299.591 383.066C299.591 383.066 297.434 382.696 294.361 382.587C291.289 382.478 286.679 382.314 286.321 379.947C285.963 377.579 293.665 378.591 295.834 379.696Z" stroke="black"/>
<path d="M296.31 389.507L302.833 376.704C302.833 376.704 307.492 376.895 306.411 378.527C306.066 379.048 305.608 378.84 305.248 379.547C304.888 380.254 305.391 380.529 305.107 381.088C304.822 381.647 304.303 381.4 303.943 382.108C303.583 382.815 304.087 383.089 303.802 383.648C303.517 384.207 302.999 383.961 302.638 384.668C302.278 385.375 302.782 385.65 302.497 386.209C302.212 386.768 301.694 386.522 301.334 387.229C300.973 387.936 301.477 388.211 301.193 388.77C300.908 389.329 300.389 389.082 300.029 389.789C299.669 390.497 300.107 390.745 299.888 391.33C299.203 393.163 296.31 389.507 296.31 389.507Z" fill="#F8B229"/>
<g filter="url(#filter2_d_581_6)">
<circle cx="63.8794" cy="339.092" r="20.122" transform="rotate(101 63.8794 339.092)" fill="#F8B229"/>
</g>
<path d="M89.4807 345.435C87.0914 344.971 84.9401 343.23 84.9401 343.23C84.9401 343.23 87.1161 342.992 90.0997 342.25C93.0834 341.508 97.559 340.395 98.5557 342.572C99.5524 344.749 91.8699 345.9 89.4807 345.435Z" stroke="black"/>
<path d="M86.3194 336.135L83.5776 350.24C83.5776 350.24 79.0467 351.34 79.6354 349.474C79.8234 348.878 80.3213 348.952 80.4727 348.173C80.6242 347.394 80.064 347.269 80.1837 346.653C80.3035 346.037 80.8697 346.131 81.0211 345.352C81.1725 344.573 80.6124 344.448 80.7321 343.832C80.8518 343.216 81.418 343.31 81.5695 342.531C81.7209 341.752 81.1607 341.627 81.2805 341.011C81.4002 340.395 81.9664 340.489 82.1178 339.71C82.2692 338.931 81.7091 338.806 81.8288 338.19C81.9485 337.574 82.5147 337.668 82.6662 336.889C82.8176 336.11 82.3282 335.992 82.3772 335.369C82.5304 333.418 86.3194 336.135 86.3194 336.135Z" fill="#D53330"/>
<g filter="url(#filter3_d_581_6)">
<circle cx="316.965" cy="712.445" r="20.122" transform="rotate(163 316.965 712.445)" fill="#F8B229"/>
</g>
<path d="M323.384 738.027C322.672 735.699 323.199 732.983 323.199 732.983C323.199 732.983 324.43 734.792 326.487 737.078C328.543 739.364 331.627 742.794 330.172 744.696C328.718 746.598 324.095 740.355 323.384 738.027Z" stroke="black"/>
<path d="M330.111 730.87L316.37 735.071C316.37 735.071 313.271 731.587 315.196 731.23C315.81 731.116 315.979 731.591 316.738 731.359C317.496 731.127 317.344 730.573 317.944 730.39C318.544 730.207 318.727 730.751 319.486 730.519C320.245 730.287 320.092 729.733 320.692 729.55C321.292 729.366 321.475 729.91 322.234 729.678C322.993 729.446 322.841 728.893 323.441 728.71C324.04 728.526 324.223 729.07 324.982 728.838C325.741 728.606 325.589 728.053 326.189 727.869C326.789 727.686 326.972 728.23 327.731 727.998C328.49 727.766 328.364 727.278 328.937 727.029C330.732 726.249 330.111 730.87 330.111 730.87Z" fill="#D53330"/>
<g filter="url(#filter4_d_581_6)">
<circle cx="337.575" cy="137.077" r="20.122" transform="rotate(-61 337.575 137.077)" fill="#FF3399"/>
</g>
<path d="M315.186 123.133C317.315 124.313 318.823 126.633 318.823 126.633C318.823 126.633 316.68 126.187 313.613 125.971C310.546 125.755 305.946 125.43 305.671 123.052C305.395 120.674 313.058 121.953 315.186 123.133Z" stroke="black"/>
<path d="M315.319 132.955L322.285 120.387C322.285 120.387 326.935 120.741 325.798 122.334C325.435 122.843 324.984 122.619 324.599 123.313C324.215 124.007 324.709 124.299 324.405 124.848C324.1 125.397 323.591 125.132 323.206 125.827C322.821 126.521 323.316 126.813 323.011 127.361C322.707 127.91 322.198 127.646 321.813 128.34C321.428 129.034 321.922 129.326 321.618 129.875C321.314 130.424 320.804 130.159 320.42 130.854C320.035 131.548 320.529 131.84 320.225 132.388C319.921 132.937 319.411 132.673 319.026 133.367C318.642 134.061 319.071 134.324 318.832 134.902C318.083 136.71 315.319 132.955 315.319 132.955Z" fill="#5C3DFF"/>
<g filter="url(#filter5_d_581_6)">
<circle cx="143.511" cy="521.811" r="20.122" transform="rotate(-120 143.511 521.811)" fill="#FF3399"/>
</g>
<path d="M120.028 533.82C122.136 532.603 124.901 532.505 124.901 532.505C124.901 532.505 123.415 534.112 121.651 536.63C119.886 539.147 117.238 542.924 115.058 541.935C112.877 540.946 117.92 535.037 120.028 533.82Z" stroke="black"/>
<path d="M128.516 538.765L121.331 526.321C121.331 526.321 124.029 522.518 124.809 524.313C125.058 524.886 124.634 525.157 125.031 525.844C125.427 526.531 125.932 526.258 126.246 526.802C126.56 527.345 126.071 527.646 126.468 528.333C126.864 529.02 127.369 528.747 127.683 529.29C127.997 529.834 127.508 530.134 127.904 530.822C128.301 531.509 128.806 531.236 129.12 531.779C129.433 532.323 128.945 532.623 129.341 533.311C129.738 533.998 130.243 533.725 130.557 534.268C130.87 534.811 130.382 535.112 130.778 535.799C131.175 536.487 131.622 536.255 131.994 536.757C133.158 538.33 128.516 538.765 128.516 538.765Z" fill="#5C3DFF"/>
<g filter="url(#filter6_d_581_6)">
<circle cx="65.2383" cy="702.626" r="20.122" transform="rotate(-56 65.2383 702.626)" fill="#5C3DFF"/>
</g>
<path d="M44.1505 686.784C46.1684 688.145 47.4687 690.587 47.4687 690.587C47.4687 690.587 45.3727 689.956 42.3363 689.474C39.2998 688.991 34.745 688.267 34.6781 685.874C34.6113 683.48 42.1327 685.423 44.1505 686.784Z" stroke="black"/>
<path d="M43.4267 696.58L51.4619 684.667C51.4619 684.667 56.0624 685.425 54.7913 686.913C54.3853 687.388 53.9559 687.125 53.5122 687.783C53.0684 688.441 53.5351 688.775 53.1843 689.295C52.8334 689.816 52.3489 689.508 51.9051 690.166C51.4613 690.824 51.9281 691.158 51.5772 691.678C51.2264 692.198 50.7418 691.89 50.2981 692.548C49.8543 693.206 50.321 693.54 49.9702 694.06C49.6193 694.581 49.1348 694.273 48.691 694.931C48.2473 695.589 48.714 695.923 48.3631 696.443C48.0123 696.963 47.5278 696.656 47.084 697.313C46.6402 697.971 47.0447 698.271 46.7561 698.826C45.8527 700.561 43.4267 696.58 43.4267 696.58Z" fill="#FF3399"/>
<g filter="url(#filter7_d_581_6)">
<circle cx="265.518" cy="253.468" r="20.122" transform="rotate(-133 265.518 253.468)" fill="#5C3DFF"/>
</g>
<path d="M245.339 270.452C247.119 268.792 249.791 268.074 249.791 268.074C249.791 268.074 248.705 269.975 247.551 272.825C246.398 275.675 244.668 279.95 242.321 279.477C239.974 279.003 243.558 272.112 245.339 270.452Z" stroke="black"/>
<path d="M254.721 273.361L244.921 262.852C244.921 262.852 246.694 258.54 247.858 260.113C248.23 260.615 247.877 260.975 248.418 261.555C248.96 262.135 249.39 261.756 249.818 262.215C250.246 262.674 249.837 263.076 250.378 263.657C250.92 264.237 251.35 263.858 251.778 264.316C252.206 264.775 251.797 265.178 252.338 265.759C252.88 266.339 253.31 265.959 253.738 266.418C254.166 266.877 253.757 267.28 254.298 267.86C254.84 268.441 255.27 268.061 255.698 268.52C256.126 268.979 255.717 269.382 256.258 269.962C256.799 270.543 257.182 270.216 257.658 270.622C259.146 271.893 254.721 273.361 254.721 273.361Z" fill="#FF3399"/>
</g>
<defs>
<filter id="filter0_d_581_6" x="31.21" y="55.5322" width="60.2534" height="60.2534" filterUnits="userSpaceOnUse" color-interpolation-filters="sRGB">
<feFlood flood-opacity="0" result="BackgroundImageFix"/>
<feColorMatrix in="SourceAlpha" type="matrix" values="0 0 0 0 0 0 0 0 0 0 0 0 0 0 0 0 0 0 127 0" result="hardAlpha"/>
<feOffset/>
<feGaussianBlur stdDeviation="5"/>
<feComposite in2="hardAlpha" operator="out"/>
<feColorMatrix type="matrix" values="0 0 0 0 0.835294 0 0 0 0 0.2 0 0 0 0 0.188235 0 0 0 0.5 0"/>
<feBlend mode="normal" in2="BackgroundImageFix" result="effect1_dropShadow_581_6"/>
<feBlend mode="normal" in="SourceGraphic" in2="effect1_dropShadow_581_6" result="shape"/>
</filter>
<filter id="filter1_d_581_6" x="288.569" y="362.723" width="60.2524" height="60.2524" filterUnits="userSpaceOnUse" color-interpolation-filters="sRGB">
<feFlood flood-opacity="0" result="BackgroundImageFix"/>
<feColorMatrix in="SourceAlpha" type="matrix" values="0 0 0 0 0 0 0 0 0 0 0 0 0 0 0 0 0 0 127 0" result="hardAlpha"/>
<feOffset/>
<feGaussianBlur stdDeviation="5"/>
<feComposite in2="hardAlpha" operator="out"/>
<feColorMatrix type="matrix" values="0 0 0 0 0.835294 0 0 0 0 0.2 0 0 0 0 0.188235 0 0 0 0.5 0"/>
<feBlend mode="normal" in2="BackgroundImageFix" result="effect1_dropShadow_581_6"/>
<feBlend mode="normal" in="SourceGraphic" in2="effect1_dropShadow_581_6" result="shape"/>
</filter>
<filter id="filter2_d_581_6" x="33.7537" y="308.967" width="60.2515" height="60.2515" filterUnits="userSpaceOnUse" color-interpolation-filters="sRGB">
<feFlood flood-opacity="0" result="BackgroundImageFix"/>
<feColorMatrix in="SourceAlpha" type="matrix" values="0 0 0 0 0 0 0 0 0 0 0 0 0 0 0 0 0 0 127 0" result="hardAlpha"/>
<feOffset/>
<feGaussianBlur stdDeviation="5"/>
<feComposite in2="hardAlpha" operator="out"/>
<feColorMatrix type="matrix" values="0 0 0 0 0.972549 0 0 0 0 0.698039 0 0 0 0 0.160784 0 0 0 0.5 0"/>
<feBlend mode="normal" in2="BackgroundImageFix" result="effect1_dropShadow_581_6"/>
<feBlend mode="normal" in="SourceGraphic" in2="effect1_dropShadow_581_6" result="shape"/>
</filter>
<filter id="filter3_d_581_6" x="286.838" y="682.317" width="60.2545" height="60.2546" filterUnits="userSpaceOnUse" color-interpolation-filters="sRGB">
<feFlood flood-opacity="0" result="BackgroundImageFix"/>
<feColorMatrix in="SourceAlpha" type="matrix" values="0 0 0 0 0 0 0 0 0 0 0 0 0 0 0 0 0 0 127 0" result="hardAlpha"/>
<feOffset/>
<feGaussianBlur stdDeviation="5"/>
<feComposite in2="hardAlpha" operator="out"/>
<feColorMatrix type="matrix" values="0 0 0 0 0.972549 0 0 0 0 0.698039 0 0 0 0 0.160784 0 0 0 0.5 0"/>
<feBlend mode="normal" in2="BackgroundImageFix" result="effect1_dropShadow_581_6"/>
<feBlend mode="normal" in="SourceGraphic" in2="effect1_dropShadow_581_6" result="shape"/>
</filter>
<filter id="filter4_d_581_6" x="307.449" y="106.951" width="60.2512" height="60.2513" filterUnits="userSpaceOnUse" color-interpolation-filters="sRGB">
<feFlood flood-opacity="0" result="BackgroundImageFix"/>
<feColorMatrix in="SourceAlpha" type="matrix" values="0 0 0 0 0 0 0 0 0 0 0 0 0 0 0 0 0 0 127 0" result="hardAlpha"/>
<feOffset/>
<feGaussianBlur stdDeviation="5"/>
<feComposite in2="hardAlpha" operator="out"/>
<feColorMatrix type="matrix" values="0 0 0 0 1 0 0 0 0 0.2 0 0 0 0 0.6 0 0 0 0.5 0"/>
<feBlend mode="normal" in2="BackgroundImageFix" result="effect1_dropShadow_581_6"/>
<feBlend mode="normal" in="SourceGraphic" in2="effect1_dropShadow_581_6" result="shape"/>
</filter>
<filter id="filter5_d_581_6" x="113.386" y="491.686" width="60.2506" height="60.2506" filterUnits="userSpaceOnUse" color-interpolation-filters="sRGB">
<feFlood flood-opacity="0" result="BackgroundImageFix"/>
<feColorMatrix in="SourceAlpha" type="matrix" values="0 0 0 0 0 0 0 0 0 0 0 0 0 0 0 0 0 0 127 0" result="hardAlpha"/>
<feOffset/>
<feGaussianBlur stdDeviation="5"/>
<feComposite in2="hardAlpha" operator="out"/>
<feColorMatrix type="matrix" values="0 0 0 0 1 0 0 0 0 0.2 0 0 0 0 0.6 0 0 0 0.5 0"/>
<feBlend mode="normal" in2="BackgroundImageFix" result="effect1_dropShadow_581_6"/>
<feBlend mode="normal" in="SourceGraphic" in2="effect1_dropShadow_581_6" result="shape"/>
</filter>
<filter id="filter6_d_581_6" x="35.1144" y="672.502" width="60.2479" height="60.248" filterUnits="userSpaceOnUse" color-interpolation-filters="sRGB">
<feFlood flood-opacity="0" result="BackgroundImageFix"/>
<feColorMatrix in="SourceAlpha" type="matrix" values="0 0 0 0 0 0 0 0 0 0 0 0 0 0 0 0 0 0 127 0" result="hardAlpha"/>
<feOffset/>
<feGaussianBlur stdDeviation="5"/>
<feComposite in2="hardAlpha" operator="out"/>
<feColorMatrix type="matrix" values="0 0 0 0 0.360784 0 0 0 0 0.239216 0 0 0 0 1 0 0 0 0.5 0"/>
<feBlend mode="normal" in2="BackgroundImageFix" result="effect1_dropShadow_581_6"/>
<feBlend mode="normal" in="SourceGraphic" in2="effect1_dropShadow_581_6" result="shape"/>
</filter>
<filter id="filter7_d_581_6" x="235.396" y="223.346" width="60.244" height="60.2441" filterUnits="userSpaceOnUse" color-interpolation-filters="sRGB">
<feFlood flood-opacity="0" result="BackgroundImageFix"/>
<feColorMatrix in="SourceAlpha" type="matrix" values="0 0 0 0 0 0 0 0 0 0 0 0 0 0 0 0 0 0 127 0" result="hardAlpha"/>
<feOffset/>
<feGaussianBlur stdDeviation="5"/>
<feComposite in2="hardAlpha" operator="out"/>
<feColorMatrix type="matrix" values="0 0 0 0 0.360784 0 0 0 0 0.239216 0 0 0 0 1 0 0 0 0.5 0"/>
<feBlend mode="normal" in2="BackgroundImageFix" result="effect1_dropShadow_581_6"/>
<feBlend mode="normal" in="SourceGraphic" in2="effect1_dropShadow_581_6" result="shape"/>
</filter>
</defs>
</svg>
