<svg fill="none" xmlns="http://www.w3.org/2000/svg" viewBox="0 0 390 800"><g opacity=".2"><g filter="url(#a)"><circle cx="65.701" cy="396.951" r="20.122" transform="rotate(-116 65.7 396.951)" fill="#D53330"/></g><path d="M41.437 407.293c2.188-1.067 4.953-.972 4.953-.972s-1.594 1.5-3.53 3.888c-1.937 2.388-4.841 5.971-6.947 4.832-2.106-1.139 3.337-6.681 5.524-7.748Z" stroke="#000"/><path d="m49.559 412.818-6.3-12.915s2.957-3.605 3.61-1.761c.209.59-.233.83.115 1.543.347.714.87.476 1.145 1.04.275.564-.233.83.114 1.543.348.714.871.476 1.146 1.04.275.564-.234.83.114 1.543.348.714.87.476 1.146 1.04.275.564-.234.83.114 1.543.348.714.87.476 1.146 1.04.275.564-.234.83.114 1.543.348.714.81.513 1.145 1.04 1.052 1.651-3.61 1.761-3.61 1.761Z" fill="#F8B229"/><g filter="url(#b)"><circle cx="331.073" cy="713.167" r="20.122" transform="rotate(10 331.073 713.167)" fill="#D53330"/></g><path d="M336.969 687.459c-.423 2.397-2.125 4.578-2.125 4.578s-.276-2.171-1.071-5.142c-.794-2.97-1.985-7.426.174-8.46 2.16-1.035 3.444 6.627 3.022 9.024Z" stroke="#000"/><path d="m327.725 690.782 14.151 2.495s1.179 4.511-.697 3.955c-.6-.178-.534-.677-1.316-.815-.781-.137-.897.425-1.515.316-.617-.109-.533-.677-1.315-.815-.782-.137-.897.425-1.515.316-.618-.109-.534-.677-1.315-.815-.782-.137-.897.425-1.515.316-.618-.109-.534-.677-1.315-.815-.782-.138-.897.425-1.515.316-.618-.109-.534-.677-1.316-.815-.781-.138-.89.354-1.514.316-1.954-.119.697-3.955.697-3.955Z" fill="#F8B229"/><g filter="url(#c)"><circle cx="79.845" cy="670.093" r="20.122" transform="rotate(-88 79.845 670.093)" fill="#F8B229"/></g><path d="M53.567 667.833c2.432.085 4.83 1.467 4.83 1.467s-2.113.575-4.944 1.775c-2.83 1.2-7.077 3-8.402 1.005-1.325-1.994 6.083-4.332 8.516-4.247Z" stroke="#000"/><path d="m58.144 676.524.501-14.361s4.303-1.795 4.014.14c-.093.619-.596.623-.624 1.416-.027.794.545.83.524 1.457-.022.627-.596.622-.624 1.416-.028.793.545.829.523 1.456-.022.627-.596.623-.623 1.416-.028.793.545.829.523 1.456-.022.627-.596.623-.624 1.416-.027.793.545.829.524 1.456-.022.627-.596.623-.624 1.416-.028.793.474.833.523 1.456.154 1.951-4.013-.14-4.013-.14Z" fill="#D53330"/><g filter="url(#d)"><circle cx="149.499" cy="216.61" r="20.122" transform="rotate(74 149.499 216.61)" fill="#F8B229"/></g><path d="M175.19 210.639c-2.34.671-5.047.097-5.047.097s1.831-1.2 4.152-3.216c2.322-2.016 5.804-5.039 7.681-3.552 1.876 1.487-4.447 6-6.786 6.671Z" stroke="#000"/><path d="m168.151 203.788 3.96 13.812s-3.537 3.037-3.86 1.107c-.103-.616.374-.776.156-1.539-.219-.763-.775-.62-.948-1.223-.173-.603.374-.777.155-1.54-.218-.763-.774-.62-.947-1.223-.173-.603.374-.776.155-1.539-.219-.763-.774-.62-.947-1.223-.173-.603.374-.777.155-1.54s-.775-.62-.947-1.223c-.173-.603.374-.776.155-1.539-.219-.763-.708-.646-.948-1.223-.749-1.808 3.861-1.107 3.861-1.107Z" fill="#D53330"/><g filter="url(#e)"><circle cx="71.316" cy="71.215" r="20.122" transform="rotate(-111 71.316 71.215)" fill="#F39"/></g><path d="M46.243 79.402c2.273-.872 5.02-.536 5.02-.536s-1.72 1.355-3.857 3.565c-2.137 2.21-5.343 5.526-7.342 4.209-1.998-1.318 3.907-6.365 6.18-7.238Z" stroke="#000"/><path d="M53.852 85.614 48.702 72.2s3.26-3.334 3.75-1.439c.157.605-.305.806-.02 1.547.284.741.825.55 1.05 1.136.225.586-.305.806-.02 1.547.284.741.825.55 1.05 1.136.225.586-.305.806-.02 1.547.284.74.825.55 1.05 1.136.225.586-.305.806-.02 1.547.284.74.825.55 1.05 1.136.225.586-.305.806-.02 1.547.284.74.76.582 1.05 1.136.904 1.736-3.75 1.44-3.75 1.44Z" fill="#5C3DFF"/><g filter="url(#f)"><circle cx="290.894" cy="345.642" r="20.122" transform="rotate(168 290.894 345.642)" fill="#F39"/></g><path d="M295.058 371.686c-.506-2.38.255-5.041.255-5.041s1.07 1.91 2.919 4.367c1.849 2.456 4.622 6.141 3.008 7.909-1.615 1.768-5.676-4.854-6.182-7.235Z" stroke="#000"/><path d="m302.384 365.142-14.056 2.988s-2.782-3.741-.835-3.928c.623-.06.749.427 1.525.262.777-.165.673-.729 1.287-.86.613-.13.748.428 1.524.263.777-.165.673-.73 1.287-.86.613-.131.748.427 1.524.262.777-.165.673-.729 1.287-.86.613-.13.748.428 1.524.263.777-.165.673-.73 1.287-.86.613-.131.748.427 1.525.262.776-.165.693-.661 1.286-.86 1.855-.621.835 3.928.835 3.928Z" fill="#5C3DFF"/><g filter="url(#g)"><circle cx="321.571" cy="145.473" r="20.122" transform="rotate(28 321.571 145.473)" fill="#5C3DFF"/></g><path d="M335.122 122.845c-1.143 2.149-3.436 3.697-3.436 3.697s.409-2.15.571-5.22c.163-3.071.407-7.676 2.78-7.993 2.373-.316 1.228 7.367.085 9.516Z" stroke="#000"/><path d="m325.304 123.149 12.687 6.746s-.272 4.654-1.885 3.546c-.515-.354-.299-.809-.999-1.181-.701-.373-.984.126-1.538-.168-.554-.295-.299-.809-1-1.182-.7-.372-.984.127-1.538-.168-.554-.294-.299-.808-.999-1.181-.701-.372-.984.127-1.538-.168-.554-.294-.299-.808-1-1.181-.7-.372-.984.127-1.538-.168-.554-.294-.298-.809-.999-1.181-.701-.373-.957.061-1.538-.168-1.821-.717 1.885-3.546 1.885-3.546Z" fill="#F39"/><g filter="url(#h)"><circle cx="202.196" cy="543.664" r="20.122" transform="rotate(-68 202.196 543.664)" fill="#5C3DFF"/></g><path d="M178.275 532.553c2.257.912 4.036 3.031 4.036 3.031s-2.181-.182-5.251-.023c-3.071.159-7.677.398-8.24-1.929-.563-2.327 7.198-1.991 9.455-1.079Z" stroke="#000"/><path d="m179.604 542.286 5.382-13.323s4.658-.216 3.724 1.504c-.298.549-.773.382-1.07 1.117-.298.736.228.966-.007 1.548-.235.581-.773.381-1.07 1.117-.297.736.229.966-.006 1.547-.235.582-.773.382-1.07 1.118-.298.735.228.965-.007 1.547-.235.582-.773.381-1.07 1.117-.297.736.229.966-.006 1.547-.235.582-.773.382-1.07 1.118-.298.736.16.945-.007 1.547-.523 1.886-3.723-1.504-3.723-1.504Z" fill="#F39"/></g><defs><filter id="a" x="35.574" y="366.825" width="60.253" height="60.253" filterUnits="userSpaceOnUse" color-interpolation-filters="sRGB"><feFlood flood-opacity="0" result="BackgroundImageFix"/><feColorMatrix in="SourceAlpha" values="0 0 0 0 0 0 0 0 0 0 0 0 0 0 0 0 0 0 127 0" result="hardAlpha"/><feOffset/><feGaussianBlur stdDeviation="5"/><feComposite in2="hardAlpha" operator="out"/><feColorMatrix values="0 0 0 0 0.835294 0 0 0 0 0.2 0 0 0 0 0.188235 0 0 0 0.5 0"/><feBlend in2="BackgroundImageFix" result="effect1_dropShadow_581_6"/><feBlend in="SourceGraphic" in2="effect1_dropShadow_581_6" result="shape"/></filter><filter id="b" x="300.948" y="683.042" width="60.251" height="60.251" filterUnits="userSpaceOnUse" color-interpolation-filters="sRGB"><feFlood flood-opacity="0" result="BackgroundImageFix"/><feColorMatrix in="SourceAlpha" values="0 0 0 0 0 0 0 0 0 0 0 0 0 0 0 0 0 0 127 0" result="hardAlpha"/><feOffset/><feGaussianBlur stdDeviation="5"/><feComposite in2="hardAlpha" operator="out"/><feColorMatrix values="0 0 0 0 0.835294 0 0 0 0 0.2 0 0 0 0 0.188235 0 0 0 0.5 0"/><feBlend in2="BackgroundImageFix" result="effect1_dropShadow_581_6"/><feBlend in="SourceGraphic" in2="effect1_dropShadow_581_6" result="shape"/></filter><filter id="c" x="49.723" y="639.97" width="60.244" height="60.244" filterUnits="userSpaceOnUse" color-interpolation-filters="sRGB"><feFlood flood-opacity="0" result="BackgroundImageFix"/><feColorMatrix in="SourceAlpha" values="0 0 0 0 0 0 0 0 0 0 0 0 0 0 0 0 0 0 127 0" result="hardAlpha"/><feOffset/><feGaussianBlur stdDeviation="5"/><feComposite in2="hardAlpha" operator="out"/><feColorMatrix values="0 0 0 0 0.972549 0 0 0 0 0.698039 0 0 0 0 0.160784 0 0 0 0.5 0"/><feBlend in2="BackgroundImageFix" result="effect1_dropShadow_581_6"/><feBlend in="SourceGraphic" in2="effect1_dropShadow_581_6" result="shape"/></filter><filter id="d" x="119.372" y="186.483" width="60.254" height="60.254" filterUnits="userSpaceOnUse" color-interpolation-filters="sRGB"><feFlood flood-opacity="0" result="BackgroundImageFix"/><feColorMatrix in="SourceAlpha" values="0 0 0 0 0 0 0 0 0 0 0 0 0 0 0 0 0 0 127 0" result="hardAlpha"/><feOffset/><feGaussianBlur stdDeviation="5"/><feComposite in2="hardAlpha" operator="out"/><feColorMatrix values="0 0 0 0 0.972549 0 0 0 0 0.698039 0 0 0 0 0.160784 0 0 0 0.5 0"/><feBlend in2="BackgroundImageFix" result="effect1_dropShadow_581_6"/><feBlend in="SourceGraphic" in2="effect1_dropShadow_581_6" result="shape"/></filter><filter id="e" x="41.188" y="41.087" width="60.255" height="60.255" filterUnits="userSpaceOnUse" color-interpolation-filters="sRGB"><feFlood flood-opacity="0" result="BackgroundImageFix"/><feColorMatrix in="SourceAlpha" values="0 0 0 0 0 0 0 0 0 0 0 0 0 0 0 0 0 0 127 0" result="hardAlpha"/><feOffset/><feGaussianBlur stdDeviation="5"/><feComposite in2="hardAlpha" operator="out"/><feColorMatrix values="0 0 0 0 1 0 0 0 0 0.2 0 0 0 0 0.6 0 0 0 0.5 0"/><feBlend in2="BackgroundImageFix" result="effect1_dropShadow_581_6"/><feBlend in="SourceGraphic" in2="effect1_dropShadow_581_6" result="shape"/></filter><filter id="f" x="260.767" y="315.516" width="60.252" height="60.252" filterUnits="userSpaceOnUse" color-interpolation-filters="sRGB"><feFlood flood-opacity="0" result="BackgroundImageFix"/><feColorMatrix in="SourceAlpha" values="0 0 0 0 0 0 0 0 0 0 0 0 0 0 0 0 0 0 127 0" result="hardAlpha"/><feOffset/><feGaussianBlur stdDeviation="5"/><feComposite in2="hardAlpha" operator="out"/><feColorMatrix values="0 0 0 0 1 0 0 0 0 0.2 0 0 0 0 0.6 0 0 0 0.5 0"/><feBlend in2="BackgroundImageFix" result="effect1_dropShadow_581_6"/><feBlend in="SourceGraphic" in2="effect1_dropShadow_581_6" result="shape"/></filter><filter id="g" x="291.445" y="115.347" width="60.252" height="60.252" filterUnits="userSpaceOnUse" color-interpolation-filters="sRGB"><feFlood flood-opacity="0" result="BackgroundImageFix"/><feColorMatrix in="SourceAlpha" values="0 0 0 0 0 0 0 0 0 0 0 0 0 0 0 0 0 0 127 0" result="hardAlpha"/><feOffset/><feGaussianBlur stdDeviation="5"/><feComposite in2="hardAlpha" operator="out"/><feColorMatrix values="0 0 0 0 0.360784 0 0 0 0 0.239216 0 0 0 0 1 0 0 0 0.5 0"/><feBlend in2="BackgroundImageFix" result="effect1_dropShadow_581_6"/><feBlend in="SourceGraphic" in2="effect1_dropShadow_581_6" result="shape"/></filter><filter id="h" x="172.068" y="513.537" width="60.255" height="60.255" filterUnits="userSpaceOnUse" color-interpolation-filters="sRGB"><feFlood flood-opacity="0" result="BackgroundImageFix"/><feColorMatrix in="SourceAlpha" values="0 0 0 0 0 0 0 0 0 0 0 0 0 0 0 0 0 0 127 0" result="hardAlpha"/><feOffset/><feGaussianBlur stdDeviation="5"/><feComposite in2="hardAlpha" operator="out"/><feColorMatrix values="0 0 0 0 0.360784 0 0 0 0 0.239216 0 0 0 0 1 0 0 0 0.5 0"/><feBlend in2="BackgroundImageFix" result="effect1_dropShadow_581_6"/><feBlend in="SourceGraphic" in2="effect1_dropShadow_581_6" result="shape"/></filter></defs></svg>