<svg width="16" height="14" viewBox="0 0 16 14" fill="none" xmlns="http://www.w3.org/2000/svg">
<path fill-rule="evenodd" clip-rule="evenodd" d="M4.76 0.499512C3.4822 0.499512 2.39504 0.959056 1.6329 1.79563C0.878044 2.62421 0.5 3.75791 0.5 5.01299C0.5 7.19261 1.60945 8.93043 3.01909 10.2806C4.42375 11.6261 6.18921 12.649 7.65248 13.4141C7.86916 13.5274 8.12746 13.528 8.34464 13.4156C9.80786 12.6586 11.5728 11.628 12.9784 10.276C14.3872 8.92107 15.5 7.17832 15.5 5.01299C15.5 3.75357 15.1199 2.61956 14.3637 1.79195C13.6006 0.956712 12.5137 0.499512 11.24 0.499512C10.1638 0.499512 9.27388 0.897675 8.59732 1.65005C8.37072 1.90204 8.17283 2.18829 8 2.50366C7.82717 2.18829 7.62928 1.90204 7.40268 1.65005C6.72612 0.897675 5.83617 0.499512 4.76 0.499512Z" fill="#D53330"/>
</svg>
