<svg width="16" height="14" fill="none" xmlns="http://www.w3.org/2000/svg"><path fill-rule="evenodd" clip-rule="evenodd" d="M4.76.5C3.482.5 2.395.96 1.633 1.796.878 2.624.5 3.758.5 5.013c0 2.18 1.11 3.917 2.52 5.268 1.404 1.345 3.17 2.368 4.632 3.133a.75.75 0 0 0 .693.002c1.463-.757 3.228-1.788 4.633-3.14 1.41-1.355 2.522-3.098 2.522-5.263 0-1.26-.38-2.393-1.136-3.221C13.6.957 12.514.5 11.24.5c-1.076 0-1.966.398-2.643 1.15A4.515 4.515 0 0 0 8 2.504a4.515 4.515 0 0 0-.597-.854C6.726.898 5.836.5 4.76.5Z" fill="#D53330"/></svg>